<svg width="50" height="50" viewBox="0 0 50 50" fill="none" xmlns="http://www.w3.org/2000/svg">
<path d="M38.2892 3.33256C36.2384 3.33188 34.2228 2.79957 32.4392 1.78756C30.2313 0.580905 27.7492 -0.035096 25.2333 -0.000776793C25.155 -0.000776793 25.0783 0.00588987 25 0.00755654C24.9217 0.0092232 24.845 -0.000776793 24.7667 -0.000776793C22.2508 -0.035096 19.7687 0.580905 17.5608 1.78756C15.7766 2.80926 13.7544 3.34219 11.6983 3.33256H11.6667C5.23333 3.33256 0 6.88423 0 11.2492C0.0462652 12.928 0.757959 14.5196 1.97833 15.6734C1.77408 16.1152 1.66776 16.5959 1.66667 17.0826C1.66667 19.6526 4.595 21.6659 8.33333 21.6659C12.0717 21.6659 15 19.6526 15 17.0826C14.9446 15.7687 14.2438 14.5669 13.1275 13.8717C13.4588 13.27 13.9396 12.7637 14.5233 12.4017C15.3065 11.9484 16.3056 12.1607 16.8367 12.8934C17.295 13.6217 17.4075 16.9309 17.4967 19.5901C17.6267 23.4434 17.7608 27.4284 18.6883 29.3892C18.8853 29.8053 19.3823 29.9829 19.7983 29.7859C20.2144 29.5889 20.392 29.092 20.195 28.6759C19.4158 27.0276 19.2783 23.0467 19.1625 19.5342C19.0283 15.5542 18.9125 13.0609 18.2458 12.0051C17.2437 10.521 15.2675 10.0593 13.7117 10.9459C12.8493 11.4684 12.1411 12.2103 11.6592 13.0959C10.5969 12.6934 9.46927 12.4911 8.33333 12.4992C6.38861 12.4298 4.48624 13.0779 2.98833 14.3201C2.17427 13.5011 1.70183 12.4034 1.66667 11.2492C1.66667 7.80256 6.1525 4.99922 11.7058 4.99922H11.7408C12.8522 4.99719 13.959 4.85724 15.0358 4.58256C14.476 5.45296 14.1746 6.46435 14.1667 7.49923C14.1667 7.95946 14.5398 8.33256 15 8.33256C15.4602 8.33256 15.8333 7.95946 15.8333 7.49923C15.8333 4.33256 19.9258 1.74922 25 1.67339C30.0742 1.74922 34.1667 4.33256 34.1667 7.49923C34.1667 7.95946 34.5398 8.33256 35 8.33256C35.4602 8.33256 35.8333 7.95946 35.8333 7.49923C35.8256 6.4642 35.5239 5.45268 34.9633 4.58256C36.0531 4.85805 37.1726 4.998 38.2967 4.99922H38.3333C43.8475 4.99922 48.3333 7.80256 48.3333 11.2492C48.2982 12.4034 47.8257 13.5011 47.0117 14.3201C45.5138 13.0779 43.6114 12.4298 41.6667 12.4992C40.5422 12.4913 39.4258 12.689 38.3725 13.0826C37.8912 12.2027 37.186 11.4656 36.3283 10.9459C34.7718 10.06 32.7957 10.5214 31.7925 12.0051C31.1258 13.0609 31.0108 15.5542 30.8758 19.5342C30.7575 23.0467 30.6258 27.0276 29.8433 28.6759C29.6464 29.092 29.8239 29.5889 30.24 29.7859C30.6561 29.9829 31.153 29.8053 31.35 29.3892C32.2767 27.4284 32.4117 23.4434 32.5417 19.5901C32.6308 16.9309 32.7433 13.6217 33.2025 12.8934C33.7337 12.1602 34.7336 11.9481 35.5167 12.4026C36.0936 12.7594 36.5696 13.258 36.8992 13.8509C35.7679 14.5451 35.056 15.7565 35 17.0826C35 19.6526 37.9283 21.6659 41.6667 21.6659C45.405 21.6659 48.3333 19.6526 48.3333 17.0826C48.3322 16.5959 48.2259 16.1152 48.0217 15.6734C49.242 14.5196 49.9537 12.928 50 11.2492C50 6.88423 44.7667 3.33256 38.2892 3.33256ZM8.33333 14.1659C9.47653 14.1523 10.6067 14.4093 11.6317 14.9159L11.6383 14.9209H11.6442C12.5631 15.2744 13.2125 16.1054 13.3333 17.0826C13.3333 18.6659 11.0433 19.9992 8.33333 19.9992C5.62333 19.9992 3.33333 18.6659 3.33333 17.0826C3.34155 16.7192 3.45757 16.3665 3.66667 16.0692V16.0626C4.395 14.9676 6.23583 14.1659 8.33333 14.1659ZM41.6667 19.9992C38.9567 19.9992 36.6667 18.6659 36.6667 17.0826C36.6667 15.2292 39.535 14.1659 41.6667 14.1659C43.7642 14.1659 45.6042 14.9676 46.3333 16.0617L46.3375 16.0684C46.5453 16.3664 46.6598 16.7194 46.6667 17.0826C46.6667 18.6659 44.3767 19.9992 41.6667 19.9992Z" fill="#066D66"/>
<path d="M25.0002 39.1667C25.4604 39.1667 25.8335 38.7936 25.8335 38.3334V22.81C27.7722 22.4113 29.1643 20.7059 29.1668 18.7267V15.3934C29.1668 13.0922 27.3013 11.2267 25.0002 11.2267C22.699 11.2267 20.8335 13.0922 20.8335 15.3934V18.7267C20.836 20.7059 22.2281 22.4113 24.1668 22.81V38.3334C24.1668 38.7936 24.5399 39.1667 25.0002 39.1667ZM22.5002 18.7275V15.3942C22.5002 14.0135 23.6195 12.8942 25.0002 12.8942C26.3809 12.8942 27.5002 14.0135 27.5002 15.3942V18.7275C27.5002 20.105 26.386 21.2229 25.0085 21.2275H25.0002H24.9918C23.6144 21.2229 22.5002 20.105 22.5002 18.7275Z" fill="#066D66"/>
<path d="M5.8335 37.0833V44.5833C5.8335 48.1392 15.4752 50 25.0002 50C34.5252 50 44.1668 48.1392 44.1668 44.5833V37.0833C44.1668 33.6767 35.6577 32.0767 28.3718 31.7425C27.9147 31.729 27.5292 32.0803 27.5002 32.5367C27.49 32.7575 27.5679 32.9733 27.7169 33.1366C27.8658 33.2999 28.0735 33.3973 28.2943 33.4075C38.211 33.8625 42.5002 36.0617 42.5002 37.0833C42.5002 37.3892 42.1068 37.8008 41.3035 38.2383C38.5252 37.0067 33.856 36.1617 28.3685 35.91C27.9118 35.8961 27.527 36.2481 27.5002 36.7042C27.49 36.925 27.5679 37.1408 27.7169 37.3041C27.8658 37.4674 28.0735 37.5648 28.2943 37.575C31.9152 37.6775 35.5109 38.2119 39.0052 39.1667C35.5149 40.139 31.9173 40.6742 28.2952 40.76C26.1693 40.8583 23.831 40.8583 21.7052 40.76C18.0847 40.6735 14.4889 40.1383 11.0002 39.1667C13.3391 38.497 15.7367 38.0519 18.1602 37.8375C18.4634 37.8165 18.7311 37.6322 18.8588 37.3564C18.9865 37.0806 18.954 36.7572 18.7739 36.5124C18.5939 36.2676 18.2948 36.1402 17.9935 36.18C14.8141 36.4103 11.6856 37.1052 8.70766 38.2425C7.89516 37.8025 7.50016 37.39 7.50016 37.0833C7.50016 36.0617 11.7893 33.8625 21.7052 33.4075C21.9261 33.3976 22.134 33.3002 22.2832 33.1369C22.4323 32.9735 22.5103 32.7576 22.5002 32.5367C22.4712 32.0806 22.0861 31.7295 21.6293 31.7425C14.3427 32.0767 5.8335 33.6767 5.8335 37.0833ZM8.20683 39.8533C8.25899 39.8874 8.31491 39.9154 8.3735 39.9367C11.4452 41.425 16.8035 42.2017 21.6277 42.4233C22.7168 42.4742 23.851 42.5 25.0002 42.5C26.1493 42.5 27.2835 42.4742 28.3718 42.4242C33.1968 42.2025 38.556 41.4242 41.6277 39.9367C41.6862 39.9153 41.7421 39.8873 41.7943 39.8533C42.0443 39.725 42.2843 39.5908 42.5018 39.4525V44.5833C42.5018 45.8917 36.491 48.3333 25.0018 48.3333C13.5127 48.3333 7.50016 45.8917 7.50016 44.5833V39.4533C7.71766 39.5917 7.95433 39.725 8.20683 39.8533Z" fill="#066D66"/>
</svg>
