<svg width="50" height="50" viewBox="0 0 50 50" fill="none" xmlns="http://www.w3.org/2000/svg">
<g clip-path="url(#clip0)">
<path d="M38.964 22.6202C35.7926 16.8205 35.2459 11.269 35.3456 7.63303C35.4541 3.67573 36.3299 1.05983 36.3387 1.03395C36.4781 0.625946 36.2606 0.182101 35.8527 0.0424533C35.4447 -0.0976826 35.0003 0.119992 34.8604 0.528193C34.8216 0.641376 33.9087 3.34898 33.7854 7.5263C33.6721 11.3702 34.2407 17.2392 37.5929 23.3698C37.9446 24.0128 38.254 24.6803 38.5221 25.3703L36.4086 25.8755C29.139 27.6134 21.2452 27.7053 13.5913 25.8755L11.4777 25.3703C11.7458 24.6804 12.0553 24.0129 12.4069 23.3698C15.7592 17.2392 16.3277 11.3702 16.2144 7.5263C16.0912 3.34898 15.1783 0.641376 15.1394 0.528193C14.9998 0.120285 14.556 -0.0968037 14.1481 0.0425509C13.7401 0.181906 13.5223 0.625848 13.6612 1.03395C13.67 1.05993 14.5459 3.67573 14.6544 7.63303C14.7541 11.269 14.2073 16.8205 11.0359 22.6202C8.01467 28.1454 8.1511 34.5995 9.80304 40.6515C11.2098 45.8048 13.3748 49.4657 13.4663 49.6189C13.6072 49.8552 13.8621 49.9999 14.1372 49.9999H35.8628C36.1378 49.9999 36.3927 49.8552 36.5336 49.6189C36.6251 49.4657 38.7901 45.8047 40.1969 40.6515C41.8437 34.6185 41.9901 28.1541 38.964 22.6202ZM36.772 27.3953L39.0247 26.8568C39.2679 27.6964 39.4527 28.5661 39.5809 29.4627L38.008 29.715C37.582 29.7834 37.292 30.1843 37.3603 30.6102C37.4287 31.0362 37.8284 31.3258 38.2555 31.2579L39.7434 31.0191C39.7902 31.7146 39.8081 32.3535 39.7825 33.1793C35.1475 34.1769 27.8617 36.2017 25 40.0131C22.1405 36.2046 14.8633 34.1793 10.2176 33.1793C10.1921 32.3607 10.2098 31.716 10.2567 31.0192C16.044 31.8416 22.0149 33.4897 31.3277 32.3361C31.7559 32.2831 32.06 31.8929 32.007 31.4647C31.954 31.0366 31.5655 30.7331 31.1356 30.7854C21.4282 31.9879 15.0805 30.0151 10.4191 29.4628C10.5473 28.5662 10.732 27.6965 10.9752 26.8569C13.6945 27.5069 15.7174 28.0384 19.0726 28.431C24.9926 29.1236 31.0159 28.7713 36.772 27.3953ZM10.309 34.7987C17.8925 36.4802 22.8029 38.9118 24.2189 41.6963V48.4374H14.5936C12.4649 44.5533 10.7294 39.49 10.309 34.7987ZM35.4066 48.4375H25.7814V41.6964C27.1974 38.912 32.1077 36.4804 39.6912 34.7988C39.271 39.4861 37.5357 44.5524 35.4066 48.4375Z" fill="#066D66"/>
<path d="M24.8475 22.9738C25.301 23.0709 25.7812 22.7223 25.7812 22.2082C25.7812 21.8376 25.5194 21.5149 25.1523 21.4424C24.7381 21.358 24.3182 21.6266 24.2344 22.0557C24.1467 22.4601 24.4131 22.888 24.8475 22.9738Z" fill="#066D66"/>
<path d="M9.2166 13.5911C8.97715 13.9499 9.07383 14.435 9.43281 14.6746C9.79014 14.9132 10.2758 14.8187 10.5163 14.4583L12.0038 12.2294C12.1833 11.9606 12.1785 11.6089 11.992 11.345L10.5045 9.23979C10.2556 8.88735 9.76787 8.80346 9.41572 9.05259C9.06338 9.30161 8.97949 9.78911 9.22852 10.1415L9.82852 10.9905H6.54297C6.11152 10.9905 5.76172 11.3403 5.76172 11.7717C5.76172 12.2032 6.11152 12.553 6.54297 12.553H9.90928L9.2166 13.5911Z" fill="#066D66"/>
<path d="M43.457 11.1623H40.0907L40.7834 10.1243C41.0228 9.76544 40.9261 9.28038 40.5672 9.04083C40.2081 8.80108 39.7231 8.89815 39.4837 9.25704L37.9962 11.4859C37.8167 11.7548 37.8215 12.1065 38.008 12.3704L39.4955 14.4756C39.7448 14.8286 40.2327 14.9115 40.5842 14.6628C40.9366 14.4138 41.0205 13.9263 40.7715 13.5739L40.1715 12.7249H43.4569C43.8883 12.7249 44.2382 12.3751 44.2382 11.9437C44.2382 11.5122 43.8884 11.1623 43.457 11.1623Z" fill="#066D66"/>
<path d="M16.6723 17.2923C17.2054 17.4641 17.8023 17.6852 18.7693 17.942C19.1855 18.0524 19.6139 17.8053 19.725 17.3874C19.8357 16.9703 19.5874 16.5426 19.1704 16.4317C18.2651 16.1914 17.7041 15.9832 17.164 15.8091C16.7539 15.6734 16.3123 15.8952 16.1766 16.3048C16.0408 16.7145 16.2629 17.1564 16.6723 17.2923Z" fill="#066D66"/>
<path d="M25.3474 18.7474C25.8045 18.7474 26.7144 18.7058 27.5729 18.6159C28.0021 18.571 28.3136 18.1866 28.2685 17.7576C28.2235 17.3284 27.8391 17.0156 27.4102 17.062C26.7246 17.1338 26.027 17.1752 25.3365 17.185C24.9051 17.1912 24.5603 17.5459 24.5665 17.9773C24.5725 18.405 24.9211 18.7474 25.3474 18.7474Z" fill="#066D66"/>
<path d="M20.9392 18.411C22.0188 18.5927 23.0747 18.6815 23.2017 18.6815C23.6063 18.6815 23.9487 18.3696 23.9798 17.9593C24.0125 17.5292 23.6903 17.1539 23.26 17.1213C22.5703 17.0688 21.8767 16.9844 21.1987 16.8703C20.774 16.7984 20.3703 17.0855 20.2986 17.511C20.2269 17.9365 20.5137 18.3394 20.9392 18.411Z" fill="#066D66"/>
<path d="M29.7674 18.2843C30.4939 18.1403 31.2193 17.9609 31.9233 17.7513C32.3367 17.6282 32.5722 17.1932 32.449 16.7796C32.3259 16.3663 31.8913 16.1304 31.4774 16.2539C30.82 16.4496 30.1424 16.6171 29.4634 16.7517C29.0403 16.8357 28.7652 17.2468 28.849 17.6701C28.933 18.0933 29.3443 18.3685 29.7674 18.2843Z" fill="#066D66"/>
<path d="M34.7259 30.2521C34.2825 30.2521 33.9434 30.6103 33.9434 31.0333C33.9434 31.4648 34.2944 31.8146 34.7259 31.8146C35.1573 31.8146 35.5071 31.4648 35.5071 31.0333C35.5071 30.6019 35.1573 30.2521 34.7259 30.2521Z" fill="#066D66"/>
</g>
<defs>
<clipPath id="clip0">
<rect width="50" height="50" fill="white"/>
</clipPath>
</defs>
</svg>
