<svg width="50" height="50" viewBox="0 0 50 50" fill="none" xmlns="http://www.w3.org/2000/svg">
<g clip-path="url(#clip0)">
<path d="M4.93279 22.6548C5.4493 22.6284 5.85938 22.2016 5.85938 21.6793C5.85938 21.1392 5.42068 20.7024 4.88281 20.7024C4.3438 20.7024 3.90625 21.1399 3.90625 21.6793C3.90625 22.2512 4.39339 22.6864 4.93279 22.6548Z" fill="#066D66"/>
<path d="M25.391 21.6793C25.391 15.7616 20.5753 10.9368 14.6488 10.9368C10.3478 10.9368 6.65741 13.3686 4.77753 17.4416C4.5517 17.9314 4.76532 18.5116 5.25513 18.7374C5.74417 18.9637 6.32477 18.75 6.55098 18.2602C8.10318 14.8976 11.1301 12.8899 14.6488 12.8899C15.4228 12.8899 16.1739 12.991 16.8896 13.1798C13.966 18.4201 14.5626 24.9916 18.3838 29.6284C17.2272 30.1705 15.9496 30.4684 14.6488 30.4684C11.1145 30.4684 7.94106 28.3711 6.56319 25.1255C6.35262 24.6292 5.77965 24.3977 5.28259 24.6083C4.7863 24.8192 4.55475 25.3922 4.76532 25.8889C6.44112 29.8371 10.3596 32.4215 14.6488 32.4215C20.623 32.4215 25.391 27.6081 25.391 21.6793ZM22.58 25.4765C20.6925 22.8756 20.3758 19.418 21.7594 16.52C22.8146 17.9699 23.4379 19.7529 23.4379 21.6793C23.4379 22.9904 23.1323 24.3191 22.58 25.4765ZM20.0687 28.5969C16.539 24.4999 15.9977 18.554 18.7294 13.8966C19.3119 14.2033 19.8559 14.5733 20.3526 14.9979C18.1381 18.8889 18.5864 23.7957 21.4691 27.224C21.0568 27.7348 20.5856 28.1945 20.0687 28.5969Z" fill="#066D66"/>
<path d="M49.9901 1.11543C50.0336 0.811016 49.9313 0.503932 49.7139 0.286876C49.4965 0.0694382 49.189 -0.0327957 48.8853 0.0106918L39.2174 1.39161C38.8512 1.44387 38.546 1.6987 38.4289 2.04965C38.3121 2.4006 38.4033 2.78741 38.6646 3.04872L40.7372 5.12124L37.7689 8.08908C32.3826 4.48228 25.9075 5.09301 21.0606 8.5087C19.0746 7.54129 16.8716 7.03126 14.6488 7.03126C6.57158 7.03126 0 13.6025 0 21.6801C0 28.6751 4.94232 34.6569 11.7191 36.0352V40.2348H8.78906C8.25005 40.2348 7.8125 40.6723 7.8125 41.2117V45.118C7.8125 45.657 8.25005 46.0945 8.78906 46.0945H11.7191V49.0242C11.7191 49.5636 12.1563 50.0008 12.6957 50.0008H16.6019C17.1413 50.0008 17.5785 49.5636 17.5785 49.0242V46.0945H20.5082C21.0476 46.0945 21.4848 45.657 21.4848 45.118V41.2117C21.4848 40.6723 21.0476 40.2348 20.5082 40.2348H17.5785V36.0352C19.643 35.6152 21.5973 34.7485 23.3025 33.498C28.7285 36.1199 35.4809 35.2368 40.0459 30.6706C44.9936 25.7241 45.7275 18 41.9102 12.2337L44.8799 9.26401L46.9521 11.3362C47.2137 11.5978 47.6006 11.6886 47.9515 11.5723C48.3025 11.4552 48.5569 11.15 48.6092 10.7838L49.9901 1.11543ZM16.4639 34.2468C15.9828 34.3155 15.6254 34.7275 15.6254 35.2135V41.2117C15.6254 41.7507 16.0625 42.1883 16.6019 42.1883H19.5316V44.1414H16.6019C16.0625 44.1414 15.6254 44.5786 15.6254 45.118V48.0477H13.6723V45.118C13.6723 44.5786 13.2347 44.1414 12.6957 44.1414H9.76601V42.1883H12.6957C13.2347 42.1883 13.6723 41.7507 13.6723 41.2117V35.2135C13.6723 34.7275 13.3148 34.3155 12.8338 34.2468C6.63071 33.3599 1.95312 27.9576 1.95312 21.6801C1.95312 14.6794 7.64847 8.98439 14.6488 8.98439C21.5782 8.98439 27.3441 14.5836 27.3441 21.6801C27.3441 28.1315 22.5616 33.3752 16.4639 34.2468ZM25.9499 12.3589C29.25 10.8147 33.276 11.47 35.9028 14.098C39.3299 17.5247 39.3299 23.1007 35.9028 26.5274C33.6666 28.764 30.4485 29.6032 27.4448 28.809C28.6591 26.6373 29.2976 24.1978 29.2976 21.6801C29.2976 18.243 28.1166 14.9788 25.9499 12.3589ZM46.9521 8.57393L45.5704 7.19224C45.1889 6.81115 44.5705 6.81077 44.1891 7.19224L39.9479 11.4334C39.6042 11.7771 39.5657 12.3211 39.8571 12.7098C43.6165 17.7235 43.1038 24.8512 38.6646 29.2896C35.0655 32.8896 29.6021 33.9531 24.9508 32.0919C25.4478 31.6002 25.9083 31.0738 26.3294 30.5161C30.1727 31.781 34.3979 30.7949 37.2841 27.9087C41.4726 23.7202 41.4726 16.9052 37.2841 12.7167C33.9222 9.35403 28.73 8.60788 24.5464 10.8833C24.0406 10.4195 23.5054 9.99223 22.9427 9.60504C26.6422 7.33758 32.1915 6.31982 37.291 10.1437C37.6793 10.4351 38.2236 10.3966 38.567 10.0529L42.8085 5.8117C43.1896 5.43023 43.1896 4.81187 42.8085 4.4304L41.4268 3.04872L47.8725 2.12823L46.9521 8.57393Z" fill="#066D66"/>
</g>
<defs>
<clipPath id="clip0">
<rect width="50" height="50" fill="white"/>
</clipPath>
</defs>
</svg>
