<svg width="50" height="50" viewBox="0 0 50 50" fill="none" xmlns="http://www.w3.org/2000/svg">
<g clip-path="url(#clip0)">
<path d="M41.9101 6.17598C37.9274 2.19336 32.6322 0 27.0001 0C21.3679 0 16.0725 2.19336 12.0899 6.17598C8.1484 10.1176 5.95943 15.3442 5.9147 20.9115L2.0776 28.5857C1.90611 28.9287 2.0275 29.3459 2.3565 29.5432L5.91402 31.6777V43.0039C5.91402 43.4092 6.24254 43.7378 6.64791 43.7378H13.7419V49.2662C13.7419 49.6715 14.0704 50.0001 14.4757 50.0001C14.8811 50.0001 15.2096 49.6715 15.2096 49.2662V43.0039C15.2096 42.5986 14.8811 42.27 14.4757 42.27H7.3816V31.2622C7.3816 31.0045 7.24635 30.7655 7.02525 30.6329L3.6941 28.6342L7.30406 21.4143C7.35504 21.3123 7.3816 21.2001 7.3816 21.086C7.3816 10.2685 16.1824 1.46768 27 1.46768C37.8175 1.46768 46.6183 10.2685 46.6183 21.086C46.6183 27.1648 43.8679 32.8013 39.0724 36.5505C38.8945 36.6896 38.7905 36.9028 38.7905 37.1287V49.2661C38.7905 49.6714 39.119 50 39.5244 50C39.9297 50 40.2583 49.6714 40.2583 49.2661V37.4827C45.2379 33.4548 48.0861 27.4995 48.0861 21.0861C48.0861 15.4538 45.8928 10.1586 41.9101 6.17598Z" fill="#066D66"/>
<path d="M39.3241 19.5612C39.312 19.3259 39.1877 19.1107 38.99 18.9826C37.7681 18.1914 36.3889 17.7117 34.9765 17.549C34.8113 16.1185 34.3159 14.734 33.534 13.5265C33.4059 13.3288 33.1907 13.2045 32.9554 13.1925C31.523 13.1191 30.0806 13.3806 28.7626 13.949C27.9204 12.8155 26.8159 11.8668 25.5023 11.1953C25.2924 11.0881 25.044 11.0881 24.8342 11.1953C23.5204 11.867 22.4156 12.8158 21.5733 13.9497C20.2548 13.3811 18.8142 13.119 17.3811 13.1925C17.1458 13.2045 16.9306 13.3288 16.8025 13.5265C16.0201 14.7349 15.5271 16.115 15.3613 17.5445C13.9513 17.7067 12.5735 18.188 11.3465 18.9825C11.1488 19.1106 11.0245 19.3258 11.0124 19.5611C10.8324 23.0872 12.6185 26.3733 15.6739 28.1374C17.1296 28.9778 18.7403 29.396 20.3485 29.396C22.0164 29.396 23.6818 28.9455 25.1681 28.0502C26.6315 28.9306 28.3004 29.3912 29.9934 29.3912C30.4343 29.3912 30.877 29.3599 31.3179 29.2969C31.7191 29.2394 31.9978 28.8676 31.9402 28.4664C31.8828 28.065 31.5108 27.7869 31.1097 27.844C29.5754 28.0636 28.0174 27.8246 26.6271 27.1688C29.063 25.4625 30.5464 22.701 30.5958 19.6763C32.9153 18.6009 35.6577 18.7339 37.8683 20.0164C37.879 22.8437 36.3941 25.443 33.9284 26.8666C33.6092 27.051 33.4746 27.4582 33.6228 27.7961C33.7958 28.191 34.2878 28.354 34.6622 28.1378C37.718 26.3733 39.504 23.0872 39.3241 19.5612ZM17.8359 14.6482C17.8422 14.6482 17.8485 14.6482 17.8548 14.6482C18.8557 14.6482 19.8528 14.8406 20.784 15.211C20.3161 16.1136 19.9956 17.0959 19.8422 18.1238C18.8779 17.7461 17.8651 17.5359 16.8477 17.4915C16.9925 16.4903 17.3282 15.5225 17.8359 14.6482ZM16.4078 26.8663C13.9424 25.4428 12.4572 22.8433 12.4679 20.0159C14.6862 18.7275 17.4156 18.5983 19.7404 19.6757C19.7896 22.7008 21.2734 25.4625 23.7095 27.1689C21.3882 28.2683 18.675 28.1752 16.4078 26.8663ZM25.1684 26.3579C22.7145 24.9536 21.2056 22.3675 21.2056 19.5205C21.2056 16.6735 22.7145 14.0874 25.1684 12.6831C27.6223 14.0874 29.1312 16.6735 29.1312 19.5205C29.1312 22.3675 27.6223 24.9536 25.1684 26.3579ZM30.4946 18.1246C30.3412 17.0963 30.0207 16.1136 29.5526 15.2108C30.4838 14.8404 31.482 14.6483 32.4826 14.6483C32.4887 14.6483 32.4947 14.6483 32.5008 14.6483C33.0084 15.5227 33.345 16.4934 33.4896 17.4958C32.4709 17.5393 31.4576 17.7478 30.4946 18.1246Z" fill="#066D66"/>
<path d="M24.8317 8.61047H24.7339C24.3285 8.61047 24 8.93909 24 9.34436C24 9.74963 24.3285 10.0782 24.7339 10.0782H24.8317C25.2371 10.0782 25.5656 9.74963 25.5656 9.34436C25.5656 8.93909 25.2371 8.61047 24.8317 8.61047Z" fill="#066D66"/>
<path d="M24.8317 10.9589H24.7339C24.3285 10.9589 24 11.2875 24 11.6927C24 12.098 24.3285 12.4266 24.7339 12.4266H24.8317C25.2371 12.4266 25.5656 12.098 25.5656 11.6927C25.5655 11.2875 25.2371 10.9589 24.8317 10.9589Z" fill="#066D66"/>
<path d="M24.8317 10.9589H24.7339C24.3285 10.9589 24 11.2875 24 11.6927C24 12.098 24.3285 12.4266 24.7339 12.4266H24.8317C25.2371 12.4266 25.5656 12.098 25.5656 11.6927C25.5656 11.2875 25.2372 10.9589 24.8317 10.9589Z" fill="#066D66"/>
<path d="M24.8317 9.39331H24.7339C24.3285 9.39331 24 9.72192 24 10.1272C24 10.5325 24.3285 10.8611 24.7339 10.8611H24.8317C25.2371 10.8611 25.5656 10.5325 25.5656 10.1272C25.5655 9.72183 25.2371 9.39331 24.8317 9.39331Z" fill="#066D66"/>
<path d="M24.8317 9.39331H24.7339C24.3285 9.39331 24 9.72192 24 10.1272C24 10.5325 24.3285 10.8611 24.7339 10.8611H24.8317C25.2371 10.8611 25.5656 10.5325 25.5656 10.1272C25.5655 9.72183 25.2371 9.39331 24.8317 9.39331Z" fill="#066D66"/>
<path d="M23.2563 35.91H28.7358C30.2195 35.91 31.4267 34.7029 31.4267 33.2191C31.4267 31.7354 30.2195 30.5283 28.7358 30.5283H19.7339C19.3285 30.5283 19 30.8569 19 31.2622C19 31.6675 19.3285 31.9961 19.7339 31.9961H28.7358C29.4102 31.9961 29.9589 32.5447 29.9589 33.2191C29.9589 33.8936 29.4102 34.4422 28.7358 34.4422H23.2563C21.7727 34.4422 20.5655 35.6492 20.5655 37.133C20.5655 38.6168 21.7727 39.8238 23.2563 39.8238H26.3875C27.0619 39.8238 27.6105 40.3725 27.6105 41.0469C27.6105 41.7213 27.0619 42.2699 26.3875 42.2699H24.4306C24.0252 42.2699 23.6967 42.5985 23.6967 43.0038C23.6967 43.4091 24.0252 43.7377 24.4306 43.7377H26.3875C27.8712 43.7377 29.0783 42.5307 29.0783 41.0469C29.0783 39.5631 27.8712 38.3561 26.3875 38.3561H23.2563C22.5818 38.3561 22.0333 37.8074 22.0333 37.133C22.0333 36.4586 22.5818 35.91 23.2563 35.91Z" fill="#066D66"/>
</g>
<defs>
<clipPath id="clip0">
<rect width="50" height="50" fill="white"/>
</clipPath>
</defs>
</svg>
