<svg width="50" height="46" viewBox="0 0 50 46" fill="none" xmlns="http://www.w3.org/2000/svg">
<path d="M49.9765 35.9825L49.7857 34.953C49.6642 34.2952 49.0897 33.8177 48.4199 33.8177C48.3358 33.8177 48.2511 33.8254 48.1677 33.8408L44.2849 34.5541L46.0433 33.3786C46.5041 33.0706 46.737 32.5196 46.6365 31.973C46.6086 31.8233 46.5563 31.6796 46.4805 31.5452L45.9484 30.6029C45.766 30.2792 45.4551 30.0386 45.0962 29.9433C44.9204 29.8965 44.7366 29.886 44.5573 29.9093C44.7531 28.8287 44.8541 27.725 44.8541 26.6014C44.8541 26.1029 44.5543 25.6739 44.1261 25.4834C44.6857 24.1525 44.7238 22.6289 44.1707 21.2336C44.1259 21.1201 44.0593 21.0189 43.9731 20.9325C43.8875 20.847 43.7874 20.7809 43.6738 20.7353C43.0111 20.4713 42.3145 20.3375 41.6034 20.3375C41.5125 20.3375 41.422 20.3399 41.3318 20.3441C41.2303 18.2999 39.5384 16.668 37.473 16.668C37.201 16.668 36.9358 16.6969 36.6796 16.7508C36.8576 15.6864 36.7528 14.5728 36.3382 13.5273C36.2937 13.4123 36.2268 13.3092 36.1359 13.2168C36.0484 13.1293 35.9458 13.0619 35.8319 13.0166C35.1179 12.7323 34.3675 12.5881 33.6015 12.5881C32.4476 12.5881 31.3438 12.9125 30.3909 13.5157C30.0428 12.5072 29.4686 11.5604 28.6665 10.7564C28.4315 10.521 28.119 10.3914 27.7865 10.3914C27.454 10.3914 27.1415 10.521 26.9062 10.7566L23.3601 14.3109C22.7038 13.7255 21.8402 13.3756 20.9029 13.3756C20.6903 13.3756 20.4755 13.3943 20.2647 13.431C19.5007 13.564 18.7977 13.9379 18.2587 14.4856C17.5676 14.1521 16.7759 14.0383 16.0151 14.1707C15.8477 14.1998 15.6853 14.2409 15.5277 14.2909V11.552C15.5277 9.66587 14.0118 8.12867 12.1366 8.09625V6.54293C12.7106 6.44362 13.1489 5.94333 13.1489 5.34138V1.82196C13.1489 1.14891 12.6013 0.601257 11.9282 0.601257H5.97205C5.2989 0.601257 4.75135 1.14891 4.75135 1.82196V5.34138C4.75135 5.94333 5.18963 6.44362 5.76365 6.54293V8.09605C3.88846 8.12838 2.37265 9.66558 2.37265 11.5518V32.9283C0.910348 34.2489 0 36.0915 0 38.1292C0 42.1376 3.51805 45.3987 7.84245 45.3987L37.1575 45.3901C38.1581 45.3898 39.0991 44.95 39.7391 44.1838C40.3625 43.4379 40.6275 42.4691 40.4748 41.5136L46.33 42.5658C46.411 42.5804 46.4941 42.5878 46.5764 42.5878C46.8684 42.5878 47.1482 42.4982 47.3851 42.3288C47.6897 42.1112 47.8958 41.7744 47.9508 41.405L48.1094 40.3408C48.1322 40.1884 48.1297 40.0349 48.1019 39.8844C48.0011 39.3403 47.5867 38.9085 47.0462 38.7847L44.9824 38.3113L48.8614 37.5987C49.2272 37.5315 49.5446 37.3261 49.7552 37.0204C49.9653 36.7154 50.0438 36.3468 49.9765 35.9825ZM41.6034 21.8022C42.0444 21.8022 42.4779 21.872 42.8947 22.0096C43.2671 23.1437 43.1277 24.3671 42.5445 25.3776H40.5714L41.201 24.7466C41.4867 24.4602 41.4862 23.9965 41.1997 23.7107C40.9133 23.425 40.4495 23.4255 40.164 23.7119L39.8309 24.0458C39.6747 23.5316 39.4021 23.0713 39.0437 22.6937C39.7706 22.1164 40.663 21.8022 41.6034 21.8022ZM37.473 18.1326C38.7957 18.1326 39.8718 19.2119 39.8718 20.5386C39.8718 20.5632 39.8706 20.5875 39.87 20.6119C39.0979 20.863 38.3863 21.2824 37.7793 21.8521C37.6828 21.8154 37.5848 21.7814 37.4842 21.7536C37.27 20.5962 36.49 19.6685 35.4596 19.2352C35.8873 18.5727 36.6292 18.1326 37.473 18.1326ZM33.6014 14.0528C34.0989 14.0528 34.5878 14.1332 35.0588 14.2924C35.4375 15.4182 35.3601 16.6275 34.8777 17.6749C34.4811 18.0361 34.1593 18.4785 33.9394 18.9758C33.8087 18.9834 33.6779 18.9979 33.5487 19.0203C32.9748 19.1202 32.4396 19.3693 31.9918 19.7304C31.839 19.4511 31.652 19.1934 31.4378 18.9613L33.1173 17.278C33.4031 16.9916 33.4025 16.5279 33.1161 16.2422C32.8298 15.9565 32.366 15.957 32.0802 16.2434L30.2445 18.0833C29.8952 17.9182 29.5177 17.8033 29.1209 17.7496C29.2923 16.8756 29.7164 16.0521 30.3724 15.3945C31.2356 14.5292 32.3824 14.0528 33.6014 14.0528ZM27.9891 25.3776H27.3543C27.2474 25.1056 26.983 24.9127 26.6729 24.9127C26.3629 24.9127 26.0985 25.1057 25.9916 25.3776H25.2447C25.4182 25.0952 25.3831 24.721 25.1383 24.4767C24.852 24.1909 24.3882 24.1914 24.1024 24.4777L23.4121 25.1695C23.3501 25.2316 23.3024 25.3024 23.2674 25.3776H21.7767C21.2184 24.5209 20.8777 23.5097 20.8373 22.4218H32.457C32.4167 23.5097 32.0759 24.5209 31.5176 25.3776H29.9664C29.9314 25.3024 29.8836 25.2315 29.8217 25.1694L29.1314 24.4776C28.8456 24.1914 28.382 24.1906 28.0957 24.4765C27.8507 24.7208 27.8156 25.0951 27.9891 25.3776ZM26.2857 20.9569C26.5618 19.9338 27.4951 19.1788 28.6012 19.1788C29.7073 19.1788 30.6406 19.9339 30.9167 20.9569H26.2857ZM27.7835 11.951C28.4802 12.7039 28.9408 13.5979 29.1667 14.5375C28.7928 14.9439 28.4821 15.3929 28.2371 15.8707C28.1259 15.8026 27.9955 15.7626 27.8556 15.7626H26.8796C26.4751 15.7626 26.1472 16.0906 26.1472 16.495C26.1472 16.8995 26.4751 17.2275 26.8796 17.2275H27.7357C27.6876 17.4297 27.6502 17.6344 27.623 17.8406C27.3322 17.917 27.0545 18.0258 26.7945 18.1643C26.3063 17.3218 25.4979 16.694 24.5401 16.4421C24.5398 16.4401 24.5395 16.438 24.5391 16.436C24.4816 16.1045 24.3814 15.7901 24.2448 15.4978L27.7835 11.951ZM14.5435 18.56C14.5005 18.4399 14.468 18.3166 14.4466 18.193C14.2366 16.982 15.053 15.8249 16.2661 15.6137C16.3941 15.5914 16.5241 15.5801 16.6524 15.5801C17.1349 15.5801 17.596 15.734 17.9858 16.0251C18.147 16.1456 18.3509 16.1944 18.5493 16.16C18.7478 16.1255 18.9233 16.011 19.0346 15.8431C19.3784 15.3244 19.9045 14.9803 20.5158 14.8739C20.6441 14.8515 20.7743 14.8403 20.9029 14.8403C21.9881 14.8403 22.9104 15.6166 23.0957 16.6864C23.117 16.809 23.1279 16.9367 23.1281 17.0661C23.1288 17.4452 23.4188 17.7612 23.7965 17.7945C24.6153 17.8664 25.3124 18.3818 25.6355 19.1077C25.2029 19.627 24.903 20.2609 24.7892 20.9569H20.6122C20.0929 20.9569 19.6473 21.2775 19.4614 21.7313C18.5425 21.1054 17.4595 20.7682 16.3245 20.7682C15.6135 20.7682 14.9169 20.9021 14.2537 21.1661C14.1412 21.211 14.0406 21.2773 13.9548 21.3631C13.8679 21.45 13.8012 21.5519 13.7575 21.6636C13.5889 22.0887 13.4765 22.5257 13.4158 22.9654C13.1533 22.6666 12.9683 22.295 12.896 21.878C12.7238 20.8843 13.244 19.8948 14.1607 19.4718C14.5052 19.3128 14.6713 18.9171 14.5435 18.56ZM16.7269 25.1773L16.9267 25.3776H15.1676C14.7727 24.4614 14.7127 23.4186 15.0333 22.4404C15.4507 22.3026 15.884 22.2329 16.3245 22.2329C17.4282 22.2329 18.4663 22.6643 19.2477 23.4474C19.3516 23.5516 19.4484 23.6607 19.5393 23.7735C19.6634 24.3354 19.8541 24.8723 20.0998 25.3775H18.996L17.7639 24.1426C17.4781 23.8563 17.0143 23.8556 16.7282 24.1414C16.4417 24.4272 16.4411 24.891 16.7269 25.1773ZM13.6078 25.3776H10.9967C11.1131 24.6682 11.5399 24.0634 12.1323 23.7067C12.483 24.1766 12.9407 24.5564 13.468 24.8138C13.5053 25.0038 13.5511 25.1922 13.6078 25.3776ZM6.21619 2.0661H11.684V5.09724H6.21619V2.0661ZM10.6717 6.56207V8.09459H7.22858V6.56207H10.6717ZM3.83758 14.5221H8.59372C8.9983 14.5221 9.32613 14.1942 9.32613 13.7897C9.32613 13.3852 8.9983 13.0573 8.59372 13.0573H3.83758V11.5518C3.83758 10.4532 4.72859 9.55943 5.82381 9.55943H12.0765C13.1718 9.55943 14.0628 10.4532 14.0628 11.5518V13.0573H12.6953C12.2907 13.0573 11.9628 13.3852 11.9628 13.7897C11.9628 14.1942 12.2907 14.5221 12.6953 14.5221H14.0628V15.1722C13.2237 15.9949 12.7878 17.2015 13.0031 18.4426C13.0035 18.445 13.004 18.4476 13.0043 18.4501C11.8293 19.2563 11.2033 20.6895 11.4526 22.1282C11.4671 22.2122 11.4854 22.2948 11.5053 22.3766C11.1394 22.5783 10.8108 22.8389 10.5292 23.1437H3.83758V14.5221ZM3.83748 24.6085H9.67867C9.60094 24.8554 9.54606 25.1123 9.5193 25.3776H9.39586C8.72174 25.3776 8.17321 25.9265 8.17321 26.6013C8.17321 27.7642 8.28131 28.9059 8.49079 30.0229C8.28034 30.006 8.06452 29.9969 7.84499 29.9969C6.95925 29.9969 6.11531 30.1375 5.46892 30.3927C4.48016 30.7832 4.20682 31.3376 4.14715 31.7212C4.04237 31.7733 3.93944 31.8284 3.83748 31.8847V24.6085ZM13.112 33.606C13.3757 33.817 13.537 33.9964 13.6304 34.1258C13.6216 34.1259 13.6124 34.126 13.6032 34.126C13.1886 34.126 12.4438 33.9589 11.5968 33.4901C11.2815 33.3154 10.991 33.118 10.7566 32.9195C10.4834 32.6879 10.0827 32.6881 9.80963 32.9196C9.57525 33.1183 9.28483 33.3156 8.96979 33.4899C8.12262 33.9589 7.3778 34.126 6.96335 34.126C6.95388 34.126 6.9448 34.1259 6.93591 34.1258C7.02927 33.9964 7.1905 33.8169 7.45436 33.6058C7.68493 33.4212 7.7821 33.1162 7.70075 32.8323C7.61931 32.5483 7.37536 32.341 7.08191 32.3066C6.36716 32.2228 5.91521 32.0409 5.70359 31.9085C5.96873 31.7433 6.63904 31.4618 7.84528 31.4618C8.8443 31.4618 9.57447 31.6718 9.92467 31.8685C10.1474 31.9935 10.419 31.9935 10.6418 31.8686C10.9921 31.6719 11.7224 31.4619 12.7214 31.4619C13.9278 31.4619 14.598 31.7435 14.863 31.9086C14.6515 32.0411 14.1995 32.2229 13.4845 32.3067C13.1911 32.3412 12.947 32.5484 12.8657 32.8325C12.784 33.1165 12.8812 33.4215 13.112 33.606ZM11.6468 42.5206L11.672 42.6564C11.7591 43.1268 11.9428 43.5585 12.1995 43.9339H7.84245C4.32586 43.9339 1.46484 41.33 1.46484 38.1292C1.46484 35.9418 2.80155 34.034 4.7699 33.0448C4.99598 33.2135 5.27781 33.359 5.61219 33.4764C5.47957 33.7029 5.38719 33.9464 5.36541 34.2004C5.3365 34.5381 5.43982 34.8588 5.65662 35.1036C5.94304 35.427 6.38269 35.591 6.96335 35.591C7.73718 35.591 8.7525 35.2846 9.67926 34.7715C9.89264 34.6535 10.0944 34.5288 10.2833 34.3985C10.472 34.5287 10.6738 34.6534 10.8873 34.7716C11.814 35.2846 12.8293 35.5909 13.6032 35.591H13.6033C14.1837 35.591 14.6234 35.427 14.9097 35.1037C15.1266 34.8589 15.23 34.5382 15.201 34.2004C15.1792 33.9464 15.0869 33.7029 14.9542 33.4764C15.2886 33.3589 15.5705 33.2134 15.7966 33.0448C17.3576 33.8293 18.5208 35.1917 18.9356 36.8131L13.7554 38.781C12.2391 39.3572 11.3523 40.9298 11.6468 42.5206ZM38.6149 43.2446C38.2538 43.6771 37.7222 43.9251 37.1568 43.9253L36.388 43.9256L35.9078 41.3323C35.834 40.9346 35.4521 40.6716 35.0542 40.7455C34.6565 40.8192 34.3937 41.2013 34.4673 41.599L34.8984 43.9261L32.3783 43.9271L32.0536 42.1735C31.9799 41.7757 31.5978 41.513 31.2 41.5866C30.8023 41.6603 30.5395 42.0424 30.6132 42.4402L30.8885 43.9276L25.0268 43.9299L24.5855 41.5483C24.5117 41.1505 24.1299 40.8878 23.7319 40.9615C23.3342 41.0352 23.0715 41.4174 23.1451 41.8152L23.537 43.9305L14.9781 43.9338C14.9779 43.9338 14.9777 43.9338 14.9775 43.9338C14.0622 43.9338 13.2779 43.2844 13.1121 42.3893L13.0869 42.2535C12.9213 41.3594 13.4211 40.4749 14.2753 40.1503L17.1539 39.0568L17.3684 40.2142C17.4337 40.5668 17.7415 40.8133 18.0876 40.8133C18.132 40.8133 18.1769 40.8092 18.222 40.8009C18.6197 40.7272 18.8823 40.345 18.8086 39.9473L18.5456 38.5281L22.8186 36.9048C23.1967 36.7612 23.3868 36.3381 23.2432 35.96C23.0995 35.5818 22.676 35.3917 22.2984 35.5354L20.3101 36.2908C19.7523 34.3159 18.3193 32.6662 16.419 31.7211C16.3593 31.3375 16.086 30.7831 15.0973 30.3926C14.4509 30.1374 13.607 29.9968 12.7212 29.9968C12.1117 29.9968 11.5295 30.0641 11.0157 30.1867V29.7443C11.0157 29.3398 10.6878 29.0119 10.2833 29.0119C10.1123 29.0119 9.95543 29.0709 9.83072 29.1691C9.7152 28.4052 9.65055 27.6292 9.6398 26.8423H33.496C33.9006 26.8423 34.2284 26.5143 34.2284 26.1098C34.2284 25.7054 33.9006 25.3774 33.496 25.3774H33.1963C33.6627 24.4169 33.9261 23.3399 33.9261 22.2018C33.9261 21.5556 33.4317 21.0232 32.8016 20.9628C33.0759 20.7041 33.4183 20.5297 33.8 20.4632C33.9118 20.4438 34.0253 20.4339 34.1374 20.4339C35.083 20.4339 35.8865 21.1104 36.0479 22.0422C36.0666 22.1501 36.0761 22.2614 36.0762 22.3732C36.0767 22.7525 36.3667 23.0687 36.7446 23.102C37.6199 23.1788 38.336 23.8371 38.4861 24.7027C38.5259 24.9329 38.5209 25.16 38.481 25.3774H37.6952C37.2906 25.3774 36.9627 25.7054 36.9627 26.1098C36.9627 26.5143 37.2906 26.8423 37.6952 26.8423H43.3877C43.3696 28.1858 43.1965 29.4982 42.8738 30.7715L38.9044 33.1147C38.6617 32.2698 38.0974 31.5531 37.32 31.1179C36.448 30.6299 35.4118 30.5537 34.4772 30.9087L26.3023 34.0143C25.9241 34.158 25.7341 34.581 25.8777 34.9591C26.0214 35.3374 26.4448 35.5272 26.8225 35.3837L27.8994 34.9747L28.2338 36.78C28.2991 37.1327 28.6069 37.3792 28.9531 37.3792C28.9973 37.3792 29.0423 37.3751 29.0874 37.3668C29.485 37.2932 29.7478 36.9111 29.6742 36.5133L29.2913 34.4459L34.9972 32.2783C35.5259 32.0775 36.1117 32.1206 36.6045 32.3964C37.0965 32.6717 37.4374 33.1463 37.5397 33.6983L39.0214 41.6978C39.1236 42.2494 38.9754 42.8132 38.6149 43.2446ZM41.2282 37.5117C40.8865 37.5745 40.636 37.8686 40.6283 38.216C40.6206 38.5633 40.8581 38.8682 41.1967 38.9458L46.6498 40.1966L46.5136 41.1106L40.1919 39.9745L39.2038 34.6392L44.71 31.3888L45.1687 32.201L40.5244 35.3056C40.2356 35.4987 40.1221 35.868 40.2528 36.1899C40.3833 36.5118 40.7222 36.6977 41.0638 36.6349L48.3593 35.2948L48.5218 36.1717L41.2282 37.5117Z" fill="#066D66"/>
</svg>
