<svg width="28" height="41" viewBox="0 0 28 41" fill="none" xmlns="http://www.w3.org/2000/svg">
<path d="M23.108 25.4054L17.3333 24.422V21.8805C19.4708 20.6375 21.0827 18.6035 21.7783 16.1972C22.1947 16.2052 22.6015 16.0885 22.9918 15.8455C23.5977 15.4682 24.0075 14.853 24.088 14.1999C24.1685 13.5457 23.9662 12.8894 23.5327 12.3992C23.249 12.0785 22.884 11.8472 22.4823 11.7255C22.4825 11.7082 22.4827 11.691 22.4828 11.674C22.4863 11.361 22.4903 10.9805 22.487 10.6487V9.29835C22.487 6.22735 21.0988 3.73735 18.5785 2.28702C15.5747 0.558519 11.387 0.565852 8.39466 2.30485C6.19767 3.58168 4.99333 5.59785 5.0035 7.98202C5.005 8.32152 5.0085 8.67152 5.01183 9.01335C5.01767 9.58985 5.023 10.1344 5.018 10.5654C5.01767 10.5735 5.0155 10.5812 5.0155 10.5894C5.01283 11.1227 5.00783 11.4787 5.00233 11.7154C4.62117 11.8242 4.27367 12.032 3.98983 12.3262C3.55533 12.7764 3.32833 13.3694 3.35083 13.9957C3.37567 14.6945 3.77167 15.369 4.41033 15.8002C4.81 16.0699 5.22033 16.2047 5.64467 16.199C6.30933 18.6134 7.886 20.6579 9.99967 21.9267V24.259L8.66467 24.5093C8.626 24.5097 8.587 24.5122 8.54817 24.5195L5.66583 25.061C5.6315 25.0675 5.59883 25.0788 5.56633 25.0905L4.14133 25.3577C1.74183 25.8077 0 27.9065 0 30.3482V39.6667C0 40.0348 0.2985 40.3333 0.666667 40.3333H26.6667C27.0348 40.3333 27.3333 40.0348 27.3333 39.6667V30.411C27.3333 27.9275 25.5563 25.8224 23.108 25.4054ZM9.06483 3.45752C11.6232 1.97052 15.3447 1.96418 17.9135 3.44252C19.3917 4.29318 21.1537 5.99952 21.1537 9.29818V10.3242C19.214 11.7429 17.0233 12.2735 14.9513 11.8187C13.1222 11.4172 11.606 10.2795 10.7913 8.69718C10.6938 8.50768 10.5115 8.37618 10.3008 8.34352C10.2667 8.33818 10.2325 8.33568 10.1987 8.33568C10.0227 8.33568 9.85233 8.40535 9.72633 8.53202C8.9 9.36185 7.69517 9.86252 6.35317 9.94868C6.352 9.65168 6.34883 9.33068 6.3455 8.99985C6.342 8.66052 6.33867 8.31319 6.33717 7.97618C6.32667 5.55785 7.81467 4.18402 9.06483 3.45752ZM6.80133 15.3065C6.763 15.1194 6.64617 14.9577 6.48067 14.8625C6.315 14.7672 6.1165 14.7477 5.9355 14.8085C5.68417 14.8932 5.466 14.9037 5.15633 14.6949C4.87417 14.5044 4.693 14.2184 4.6835 13.9482C4.67417 13.6867 4.76867 13.4395 4.9495 13.252C5.13067 13.0644 5.37383 12.961 5.63467 12.961C6.30583 12.961 6.321 12.3414 6.33433 11.7945C6.33783 11.6519 6.34083 11.4797 6.34317 11.2837C7.731 11.211 9.019 10.7709 10.0298 10.0247C11.0817 11.5857 12.7312 12.6965 14.6652 13.121C15.2463 13.2487 15.8342 13.3117 16.4227 13.3117C18.0307 13.3117 19.6447 12.8402 21.1467 11.9295C21.1433 12.4927 21.165 12.5804 21.3453 12.7629C21.4705 12.8895 21.6418 12.961 21.82 12.961C22.0927 12.961 22.3527 13.0784 22.5335 13.2827C22.7167 13.4899 22.7987 13.7577 22.7643 14.0369C22.7327 14.2942 22.554 14.5474 22.2867 14.7139C22.0198 14.8799 21.7935 14.9062 21.506 14.8047C21.3255 14.7412 21.1267 14.7579 20.9595 14.851C20.7923 14.9442 20.6733 15.1045 20.6327 15.2914C20.0032 18.1794 17.8685 20.5384 15.0617 21.4482L14.7743 21.5414C13.9855 21.797 13.1458 21.8074 12.4098 21.5705C9.55416 20.651 7.405 18.2509 6.80133 15.3065ZM12.0018 22.8397C12.4942 22.9982 13.0065 23.0774 13.5258 23.0774C14.0772 23.0774 14.636 22.988 15.186 22.8098L15.4733 22.7167C15.6515 22.659 15.8267 22.5952 16 22.5275V24.7935C14.6123 25.8075 12.7282 25.8145 11.3333 24.812V22.5942C11.5525 22.6828 11.7747 22.7665 12.0018 22.8397ZM15.1005 38.9948L17.5092 34.3603C17.8185 34.8322 18 35.395 18 36C18 37.6203 16.708 38.9413 15.1005 38.9948ZM13.5952 39H11.7645L14.883 33H15C15.5475 33 16.0597 33.1498 16.502 33.4072L13.5952 39ZM8 33H10V39H8V33ZM13.3802 33L11.3333 36.9384V33H13.3802ZM10.6667 31.6667H7.96417L6.61033 26.2512L8.39483 25.9165L12.7073 31.6667H10.6667ZM1.33333 30.3482C1.33333 28.5477 2.61783 26.9998 4.3875 26.668L5.2975 26.4973L6.704 32.1228C6.6815 32.1894 6.66667 32.2593 6.66667 32.3333V33.6667H5.33333V30.4215C5.33333 30.0534 5.03483 29.7549 4.66667 29.7549C4.2985 29.7549 4 30.0534 4 30.4215V34.3333C4 34.7015 4.2985 35 4.66667 35H6.66667V39H1.33333V30.3482ZM26 39H22.6667V31.6667C22.6667 31.2985 22.3682 31 22 31C21.6318 31 21.3333 31.2985 21.3333 31.6667V39H18.1225C18.8715 38.2207 19.3333 37.1637 19.3333 36C19.3333 33.6107 17.3893 31.6667 15 31.6667H14.374L9.85583 25.6425L10.1463 25.588L10.4177 25.7965C12.3318 27.2665 15.0008 27.2605 16.9083 25.7824L16.993 25.7167L22.8842 26.7199C24.6897 27.0273 26 28.5797 26 30.411V39Z" fill="#066D66"/>
</svg>
