<svg width="18" height="47" viewBox="0 0 18 47" fill="none" xmlns="http://www.w3.org/2000/svg">
<path d="M7.50166 4.61172L7.64385 4.89609L9.74697 4.05469C10.397 3.79531 10.8228 3.16641 10.8228 2.46641C10.8228 2.20078 10.761 1.93906 10.6423 1.70078L10.4954 1.40781C10.2173 0.851562 9.64853 0.5 9.02666 0.5C8.67119 0.5 8.32588 0.615625 8.0415 0.828125L6.20557 2.20469C6.3415 2.3625 6.46338 2.53437 6.55791 2.72344L7.50166 4.61172Z" fill="#066D66"/>
<path d="M10.7741 14.5625C10.7741 14.5625 10.7991 17.7711 10.7593 18.3344L12.7585 17.9258C13.4499 17.7867 13.9476 17.1797 13.9476 16.4742C13.9476 16.2445 13.8944 16.018 13.7913 15.8125L13.5757 15.3805C13.3249 14.8789 12.8124 14.5625 12.2515 14.5625H10.7741Z" fill="#066D66"/>
<path d="M8.90928 34.9383L9.12334 35.793L9.39756 35.8617C10.0905 36.0352 10.7272 36.3437 11.2812 36.7602L11.978 36.0633C12.2382 35.8031 12.3851 35.4492 12.3851 35.0797V34.7031C12.3851 33.9352 11.7624 33.3125 10.9937 33.3125C10.8796 33.3125 10.7663 33.3266 10.6562 33.3539L8.72412 33.8367C8.74209 33.9453 8.75537 34.0555 8.7749 34.1641L8.90928 34.9383Z" fill="#066D66"/>
<path d="M11.604 28.9063V28.625C11.604 27.7617 10.9048 27.0625 10.0415 27.0625H8.85791C8.85791 27.0625 8.479 30.7109 8.479 30.8125L10.3478 30.4391C11.0782 30.293 11.604 29.6516 11.604 28.9063Z" fill="#066D66"/>
<path d="M13.1665 22.7156C13.1665 22.4914 13.1142 22.2711 13.0142 22.0703L12.7837 21.6102C12.5399 21.1211 12.0399 20.8125 11.4938 20.8125H10.4501C10.372 21.2344 9.50244 24.5484 9.50244 24.5484L11.9618 24.1383C12.6563 24.0227 13.1665 23.4203 13.1665 22.7156Z" fill="#066D66"/>
<path d="M9.17773 8.09375L10.1754 11.2094L11.3676 10.9117C11.966 10.7609 12.3855 10.2234 12.3855 9.60625V8.875C12.3855 8.13281 11.784 7.53125 11.041 7.53125C10.8965 7.53125 10.7527 7.55469 10.616 7.6L9.17773 8.09375Z" fill="#066D66"/>
<path d="M3.68213 11.1938L3.74619 11.3696C3.89228 11.7703 4.01572 12.1766 4.12275 12.5867L8.50869 11.125C8.32509 10.4414 8.11181 9.76565 7.86338 9.10315L3.68213 11.1938Z" fill="#066D66"/>
<path d="M6.41094 5.92346L2.48047 7.88909L3.14453 9.71643L7.25704 7.66018C7.1625 7.45549 7.07344 7.24924 6.97344 7.04768L6.41094 5.92346Z" fill="#066D66"/>
<path d="M4.42432 14.1336C4.49541 14.6336 4.53916 15.1375 4.554 15.6445L9.15635 14.7242C9.09073 14.0304 8.99385 13.3398 8.86182 12.6547L4.42432 14.1336Z" fill="#066D66"/>
<path d="M9.00322 20.0312H3.97822C3.88057 20.3547 3.77979 20.6766 3.65791 20.9937L3.50635 21.3883L8.60947 21.9555C8.76728 21.3195 8.904 20.6781 9.00322 20.0312Z" fill="#066D66"/>
<path d="M7.63935 25.4024C7.6956 25.1923 7.74091 24.9798 7.80419 24.7712L8.19091 23.4813L2.92607 22.8962L2.19482 24.797L7.63935 25.4024Z" fill="#066D66"/>
<path d="M1.94228 6.41022L5.71181 4.52585L5.16025 3.4235C4.90869 2.92116 4.25478 2.70319 3.754 2.95475L2.10322 3.78053C1.69854 3.98288 1.44775 4.38913 1.44775 4.84069C1.44775 4.97975 1.47197 5.11569 1.51885 5.24538L1.94228 6.41022Z" fill="#066D66"/>
<path d="M4.35693 18.4688H9.18584C9.23193 17.893 9.26006 17.3157 9.26006 16.7368C9.26006 16.5907 9.2499 16.4453 9.24756 16.2993L4.51865 17.2453C4.4835 17.6563 4.42881 18.0641 4.35693 18.4688Z" fill="#066D66"/>
<path d="M12.3141 43.6899L11.7594 43.6102C10.7797 43.4704 10.0414 42.6196 10.0414 41.6297C10.0414 41.0954 10.2492 40.593 10.6273 40.2149L11.468 39.3735C10.993 38.3805 10.1047 37.6485 9.01718 37.3766L8.68047 37.2922L4.28906 41.0563C4.38594 41.0985 4.48828 41.125 4.59531 41.125C5.80391 41.125 6.95859 41.7024 7.68359 42.6696L8.08984 43.211C8.60546 43.8985 9.39062 44.3469 10.2445 44.4422L13.8601 44.8438C14.132 44.8743 14.3953 44.9329 14.6492 45.0149C14.075 44.318 13.257 43.8243 12.3141 43.6899Z" fill="#066D66"/>
<path d="M7.55635 35.968L2.02197 37.6281C2.379 38.3992 2.80088 39.1437 3.29385 39.8531L7.604 36.1586L7.55635 35.968Z" fill="#066D66"/>
<path d="M16.5767 41.4727L15.6853 40.8781L15.4392 40.3852C15.1853 39.8781 14.6751 39.5625 14.1071 39.5625C13.7157 39.5625 13.3313 39.7219 13.054 39.9984L12.9376 40.1148L11.7321 41.3203C11.6509 41.4016 11.604 41.5148 11.604 41.6297C11.604 41.8461 11.7657 42.0328 11.9798 42.0633L12.5345 42.143C14.654 42.4453 16.3446 44.0109 16.8868 46.0039C17.4978 45.4641 17.854 44.6883 17.854 43.8594C17.854 42.8984 17.3767 42.0063 16.5767 41.4727Z" fill="#066D66"/>
<path d="M7.07315 33.379L0.887207 33.9977C1.01455 34.7376 1.19814 35.4633 1.43721 36.1719L7.23565 34.4321C7.17393 34.0821 7.11612 33.7313 7.07315 33.379Z" fill="#066D66"/>
<path d="M6.9165 30.818C6.9165 30.607 6.93291 30.3977 6.93916 30.1875H0.725879C0.687598 30.6195 0.666504 31.0539 0.666504 31.4906C0.666504 31.8109 0.682911 32.1281 0.703223 32.4453L6.94697 31.8211C6.93135 31.4867 6.9165 31.1523 6.9165 30.818Z" fill="#066D66"/>
<path d="M7.29169 26.9352L1.61826 26.3047C1.33154 27.0625 1.11357 27.8375 0.956543 28.625H7.04482C7.1042 28.0586 7.18701 27.4953 7.29169 26.9352Z" fill="#066D66"/>
</svg>
