<svg width="50" height="50" viewBox="0 0 50 50" fill="none" xmlns="http://www.w3.org/2000/svg">
<path d="M47.5 22.5H37.5C36.1193 22.5 35 23.6193 35 25V30.8333C35 32.2141 36.1193 33.3333 37.5 33.3333H39.1667V46.6667C39.1667 48.5076 40.6591 50 42.5 50C44.341 50 45.8333 48.5076 45.8333 46.6667V33.3333H47.5C48.8807 33.3333 50 32.2141 50 30.8333V25C50 23.6193 48.8807 22.5 47.5 22.5ZM44.1667 46.6667C44.1667 47.5872 43.4205 48.3333 42.5 48.3333C41.5795 48.3333 40.8333 47.5872 40.8333 46.6667V33.3333H44.1667V46.6667ZM48.3333 30.8333C48.3333 31.2936 47.9602 31.6667 47.5 31.6667H37.5C37.0398 31.6667 36.6667 31.2936 36.6667 30.8333V25C36.6667 24.5398 37.0398 24.1667 37.5 24.1667H47.5C47.9602 24.1667 48.3333 24.5398 48.3333 25V30.8333Z" fill="#066D66"/>
<path d="M27.8908 14.4166L27.2575 13.7883C24.3775 10.89 19.6858 6.44245 17.1666 4.05079C16.8883 3.78912 16.1133 3.10662 15.1266 2.24745C13.1708 0.543425 10.5834 -0.249847 8.00861 0.0651687C5.43381 0.380184 3.11393 1.77385 1.62664 3.89912C-1.14473 7.87611 -0.287166 13.331 3.5708 16.2658C3.61429 16.3023 3.65963 16.3365 3.70664 16.3683C4.09116 16.6214 4.60809 16.5149 4.86122 16.1304C5.11435 15.7458 5.00783 15.2289 4.6233 14.9758C4.59465 14.951 4.5646 14.9279 4.5333 14.9066C1.41515 12.5054 0.736148 8.07678 2.99164 4.85162C4.20789 3.11496 6.10409 1.97612 8.20857 1.71836C10.313 1.4606 12.428 2.10816 14.0275 3.49995C14.9916 4.34329 15.75 5.00995 16.0183 5.26245C18.5333 7.64662 23.2133 12.0833 26.0758 14.9633L26.72 15.6025C28.1533 17.0191 29.6366 18.4791 30.2791 20.3316C30.8424 21.9541 30.9804 23.6939 30.68 25.385L30.2016 28.0316C29.8883 29.2341 28.6016 29.615 27.5833 29.5758C27.1231 29.5576 26.7352 29.916 26.7171 30.3762C26.6989 30.8364 27.0572 31.2243 27.5175 31.2425C27.585 31.2425 27.6533 31.2466 27.7216 31.2466C28.399 31.248 29.0696 31.1125 29.6933 30.8483L26.5333 48.3333H18.7891L17.7808 35.2075C17.5622 32.5148 18.2357 29.8251 19.6975 27.5533L21.2033 25.4883C21.4318 25.1197 21.3395 24.6374 20.9909 24.3794C20.6423 24.1213 20.1541 24.1738 19.8683 24.5L18.9183 25.7583C18.8825 25.8066 18.8508 25.86 18.8141 25.9091L18.8083 25.9041L18.6416 25.7866C16.0716 23.8966 12.9466 21.4533 9.92414 19.095L8.04914 17.6291C7.81456 17.4437 7.49861 17.3981 7.22122 17.5098C6.94382 17.6214 6.7475 17.8731 6.70677 18.1694C6.66605 18.4656 6.78716 18.7609 7.02414 18.9433L8.9008 20.4083C11.9325 22.7758 15.0675 25.225 17.6308 27.11C17.6441 27.1208 17.7258 27.18 17.8366 27.26L17.9033 27.3083C16.515 29.7451 15.8932 32.5437 16.1191 35.3391L17.1275 48.4641C17.2015 49.3327 17.9282 50.0001 18.8 50H26.5333C27.339 49.9978 28.0295 49.4235 28.1783 48.6316L32.32 25.68C32.6718 23.7074 32.5111 21.6776 31.8533 19.785C31.0833 17.5658 29.46 15.9641 27.8908 14.4166Z" fill="#066D66"/>
<path d="M34.0835 11.2367C33.6326 11.1468 33.194 11.4392 33.1035 11.89L32.5169 14.8334C32.4726 15.05 32.5162 15.2753 32.6382 15.4597C32.7601 15.6441 32.9502 15.7725 33.1669 15.8167C33.2217 15.8282 33.2775 15.8337 33.3335 15.8334C33.7293 15.8331 34.0702 15.5545 34.1494 15.1667L34.7394 12.2209C34.7837 12.0033 34.7394 11.777 34.6163 11.5923C34.4932 11.4075 34.3014 11.2795 34.0835 11.2367Z" fill="#066D66"/>
<path d="M37.5002 20.8333C37.5562 20.8336 37.6121 20.8281 37.6669 20.8166L40.6136 20.2274C40.9133 20.1771 41.1619 19.9675 41.2622 19.6805C41.3624 19.3936 41.2985 19.0748 41.0954 18.8487C40.8922 18.6226 40.5821 18.525 40.2861 18.5941L37.3336 19.1833C36.914 19.2685 36.6273 19.6577 36.6703 20.0837C36.7133 20.5096 37.0721 20.8337 37.5002 20.8333Z" fill="#066D66"/>
<path d="M39.756 14.7558C40.0718 14.4288 40.0673 13.909 39.7459 13.5876C39.4244 13.2661 38.9047 13.2616 38.5777 13.5774L36.0777 16.0774C35.861 16.2867 35.7742 16.5965 35.8504 16.8879C35.9267 17.1792 36.1542 17.4067 36.4456 17.483C36.7369 17.5593 37.0468 17.4724 37.256 17.2558L39.756 14.7558Z" fill="#066D66"/>
</svg>
