<svg width="50" height="50" viewBox="0 0 50 50" fill="none" xmlns="http://www.w3.org/2000/svg">
<path d="M48.5373 24.1637C48.0768 23.7003 47.529 23.3329 46.9255 23.0826C46.3221 22.8324 45.675 22.7044 45.0217 22.7059H38.0775L38.0811 16.6278C38.0763 14.6903 37.4899 12.7989 36.3979 11.1985C35.306 9.59807 33.7587 8.36231 31.9564 7.65123C30.7092 7.15983 29.1377 6.76881 27.799 7.05553C28.0896 5.98372 28.0124 4.84542 27.5796 3.82272C27.1468 2.80002 26.3835 1.95202 25.4118 1.41438C24.4402 0.876731 23.3162 0.680511 22.2199 0.857105C21.1235 1.0337 20.118 1.5729 19.3643 2.38846C18.6106 3.20401 18.1522 4.24879 18.0624 5.35566C17.9727 6.46253 18.2567 7.56753 18.8691 8.49388C19.4816 9.42023 20.387 10.1144 21.4406 10.4654C22.4942 10.8163 23.6351 10.8038 24.6807 10.4297L21.8682 15.2153L15.6365 18.2887C15.2263 18.4942 14.8653 18.7858 14.5782 19.1437C14.291 19.5015 14.0846 19.9172 13.9729 20.3622H12.5186C11.9613 20.3624 11.4104 20.4795 10.9012 20.7059C10.3921 20.9323 9.93609 21.263 9.5627 21.6766C9.30162 20.9807 8.88691 20.3527 8.34945 19.8393C7.812 19.3259 7.16564 18.9404 6.45853 18.7115C5.75141 18.4825 5.00176 18.416 4.26539 18.517C3.52903 18.618 2.82493 18.8837 2.20553 19.2946C1.58612 19.7054 1.06738 20.2506 0.687935 20.8897C0.308487 21.5288 0.0781105 22.2453 0.0139614 22.9858C-0.0501876 23.7263 0.053544 24.4717 0.317431 25.1665C0.581318 25.8613 0.998561 26.4877 1.53809 26.9989H0.678711C0.497411 26.9989 0.323536 27.0709 0.195337 27.1991C0.0671385 27.3273 -0.00488281 27.5012 -0.00488281 27.6825V33.5184C-0.00488281 33.6997 0.0671385 33.8736 0.195337 34.0018C0.323536 34.13 0.497411 34.202 0.678711 34.202H3.41309V48.4872C3.41309 48.6685 3.48511 48.8424 3.61331 48.9705C3.7415 49.0987 3.91538 49.1708 4.09668 49.1708H8.78418C8.96548 49.1708 9.13936 49.0987 9.26755 48.9705C9.39575 48.8424 9.46777 48.6685 9.46777 48.4872V40.4688C9.51621 40.4715 9.56504 40.4766 9.61309 40.4766C10.1499 40.4767 10.6751 40.3209 11.1251 40.0283C11.5751 39.7357 11.9305 39.3188 12.1482 38.8282L14.1611 34.204H23.8385L22.8303 35.5352C22.2786 36.1008 21.9694 36.8592 21.9682 37.6493V46.0477C21.9609 46.846 22.2616 47.6163 22.8079 48.1983C23.3542 48.7804 24.1039 49.1294 24.901 49.1727H24.9932C25.7963 49.1722 26.5665 48.853 27.1345 48.2852C27.7025 47.7174 28.022 46.9474 28.0229 46.1442V38.9087L30.2018 36.7497L29.8354 38.6329C29.7752 38.9523 29.765 39.2791 29.8049 39.6016L30.926 46.5083C31.0152 47.2423 31.3698 47.9183 31.923 48.4089C32.4762 48.8996 33.1897 49.171 33.9291 49.1719C34.0518 49.1724 34.1744 49.1654 34.2963 49.1512C35.0928 49.0534 35.818 48.6436 36.3128 48.0118C36.8076 47.3799 37.0316 46.5777 36.9357 45.7809C36.9357 45.7715 36.933 45.7622 36.9314 45.7524L35.8729 39.3071L36.867 34.202H40.5225V48.4872C40.5225 48.6685 40.5945 48.8424 40.7227 48.9705C40.8509 49.0987 41.0248 49.1708 41.2061 49.1708H45.8936C46.0749 49.1708 46.2487 49.0987 46.3769 48.9705C46.5051 48.8424 46.5772 48.6685 46.5772 48.4872V34.202H49.3115C49.4928 34.202 49.6667 34.13 49.7949 34.0018C49.9231 33.8736 49.9951 33.6997 49.9951 33.5184V27.6825C49.9968 27.0287 49.8688 26.3811 49.6186 25.7771C49.3683 25.1732 49.0008 24.6248 48.5373 24.1637ZM23.0283 9.35162C22.3206 9.3517 21.6288 9.14191 21.0403 8.74879C20.4518 8.35567 19.9932 7.79687 19.7223 7.14306C19.4514 6.48925 19.3805 5.76979 19.5185 5.07568C19.6565 4.38157 19.9973 3.74397 20.4977 3.24352C20.9981 2.74307 21.6356 2.40225 22.3297 2.26415C23.0238 2.12606 23.7433 2.1969 24.3971 2.4677C25.051 2.73851 25.6098 3.19713 26.003 3.78556C26.3962 4.37399 26.6061 5.0658 26.6061 5.7735C26.605 6.72209 26.2278 7.63154 25.557 8.30234C24.8863 8.97313 23.9769 9.35049 23.0283 9.35162ZM16.2428 19.5141L22.6561 16.3501C22.7756 16.291 22.8753 16.1983 22.9428 16.0833L27.0053 9.1692C27.1368 8.94699 27.3182 8.75842 27.5351 8.61842C27.7521 8.47842 27.9986 8.39082 28.2553 8.36256C28.3153 8.35415 28.3759 8.35049 28.4365 8.35162C30.6311 8.35369 32.7352 9.22638 34.2871 10.7781C35.8389 12.3299 36.7117 14.434 36.7139 16.6286L36.7104 22.7071H36.6522C35.2045 21.4173 33.388 20.6153 31.4596 20.4145L31.8236 18.0266C31.9715 17.046 31.7936 16.0439 31.3172 15.1741C30.8408 14.3043 30.0921 13.6148 29.1861 13.2114C29.0328 13.1432 28.8597 13.1339 28.6999 13.1852C28.5401 13.2365 28.4048 13.3448 28.3197 13.4895L25.4479 18.3723C25.2839 18.6512 25.0415 18.8757 24.751 19.018L17.6221 22.5337C17.4229 22.6318 17.206 22.689 16.9843 22.7018C16.7626 22.7147 16.5406 22.6829 16.3314 22.6083C16.1222 22.5338 15.9301 22.4181 15.7665 22.268C15.6028 22.1178 15.471 21.9364 15.3787 21.7344C15.2811 21.5227 15.2354 21.2908 15.2451 21.0579C15.2559 20.7343 15.3544 20.4197 15.5301 20.1478C15.7058 19.8759 15.9522 19.6568 16.2428 19.5141ZM30.4717 17.8192L30.0842 20.3622H25.117L25.3561 20.245C25.8867 19.9841 26.3289 19.5729 26.6275 19.0626L29.1596 14.7559C29.6416 15.0939 30.0198 15.5597 30.2516 16.1008C30.4834 16.642 30.5596 17.2371 30.4717 17.8192ZM1.3623 23.4192C1.3623 22.7115 1.57217 22.0197 1.96535 21.4313C2.35854 20.8428 2.91739 20.3842 3.57123 20.1134C4.22507 19.8426 4.94453 19.7718 5.63863 19.9099C6.33273 20.048 6.97029 20.3888 7.47068 20.8892C7.97108 21.3897 8.31183 22.0273 8.44985 22.7214C8.58787 23.4155 8.51695 24.135 8.24607 24.7888C7.97519 25.4426 7.51652 26.0014 6.92805 26.3945C6.33957 26.7876 5.64774 26.9974 4.94004 26.9973C3.99142 26.9963 3.08195 26.619 2.4112 25.9482C1.74046 25.2773 1.36324 24.3678 1.3623 23.4192ZM8.51816 26.8231V26.9989H8.34238C8.40254 26.9424 8.46126 26.8838 8.51856 26.8231H8.51816ZM4.0834 32.8348H1.3623V28.3661H8.51856V32.8333L4.0834 32.8348ZM8.10059 34.3329L7.13262 36.554C6.94628 36.9712 6.86192 37.4267 6.88651 37.883C6.9111 38.3392 7.04393 38.7831 7.27402 39.1778C7.4805 39.5219 7.76347 39.8138 8.10098 40.0309V47.8044H4.78066V34.202H8.10098L8.10059 34.3329ZM13.7139 26.9989C13.5326 26.9989 13.3587 27.0709 13.2305 27.1991C13.1023 27.3273 13.0303 27.5012 13.0303 27.6825V33.3758L10.8982 38.279C10.7693 38.576 10.5403 38.8185 10.2512 38.9644C9.96206 39.1102 9.63098 39.1502 9.31543 39.0774C9.11243 39.0269 8.92326 38.9317 8.7617 38.7988C8.60014 38.666 8.47026 38.4987 8.38153 38.3093C8.2928 38.1198 8.24745 37.913 8.24879 37.7038C8.25012 37.4946 8.29811 37.2884 8.38926 37.1001L9.83027 33.7915V33.7887C9.84839 33.747 9.86226 33.7036 9.87168 33.659C9.88125 33.6132 9.8861 33.5665 9.88613 33.5196V24.3622C9.88686 23.6641 10.1645 22.9949 10.6581 22.5013C11.1517 22.0077 11.8209 21.7301 12.5189 21.7294H13.9432C13.9871 21.9265 14.0517 22.1184 14.1357 22.302C14.3026 22.6714 14.5426 23.0031 14.8413 23.2771C15.1399 23.5512 15.4909 23.7619 15.8732 23.8965C16.2551 24.0312 16.6599 24.0884 17.0641 24.065C17.4683 24.0416 17.8638 23.938 18.2275 23.7602L22.3463 21.729H30.5029C30.542 21.729 30.5846 21.729 30.6592 21.7325C32.6188 21.7707 34.4937 22.5384 35.9174 23.8856C36.044 24.0055 36.2117 24.0725 36.3861 24.0727H45.0225C45.8604 24.0741 46.6718 24.3667 47.3178 24.9004C47.9638 25.4342 48.4041 26.1758 48.5635 26.9985L13.7139 26.9989ZM30.6639 34.3645L26.8564 38.1383C26.7922 38.2019 26.7413 38.2775 26.7065 38.3608C26.6717 38.4442 26.6537 38.5336 26.6537 38.6239V46.1434C26.6533 46.3659 26.6083 46.586 26.5213 46.7908C26.4344 46.9955 26.3073 47.1808 26.1475 47.3356C25.9878 47.4904 25.7986 47.6116 25.5912 47.692C25.3838 47.7725 25.1624 47.8106 24.94 47.804C24.4976 47.7736 24.0839 47.5741 23.7847 47.2468C23.4856 46.9195 23.3239 46.4895 23.3334 46.0462V37.6477C23.3339 37.4286 23.3779 37.2117 23.4628 37.0097C23.5477 36.8077 23.6718 36.6245 23.8279 36.4708C23.8517 36.4474 23.8737 36.4223 23.8939 36.3958L25.5557 34.2016H30.6971L30.6639 34.3645ZM34.1314 47.7926C33.9122 47.8204 33.6896 47.804 33.4769 47.7443C33.2641 47.6847 33.0654 47.5829 32.8927 47.4452C32.7199 47.3074 32.5764 47.1364 32.4709 46.9423C32.3653 46.7481 32.2997 46.5348 32.2779 46.3149L31.1592 39.4141C31.139 39.24 31.1453 39.0637 31.1779 38.8915L31.9268 35.0391L32.7732 34.202H35.4752L34.5076 39.1649C34.492 39.2445 34.4908 39.3263 34.5041 39.4063L35.5799 45.9575C35.6289 46.3923 35.5044 46.8288 35.2335 47.1724C34.9627 47.5159 34.5672 47.7388 34.133 47.7926H34.1314ZM45.2084 47.8036H41.8881V34.202H45.2084V47.8036ZM48.6264 32.8348H14.3975V28.3661H48.6279L48.6264 32.8348Z" fill="#066D66"/>
</svg>
