<svg width="50" height="50" viewBox="0 0 50 50" fill="none" xmlns="http://www.w3.org/2000/svg">
<g clip-path="url(#clip0)">
<path d="M9.3145 25.6512H10.2903C10.7004 25.6512 11.033 25.3189 11.033 24.9089C11.033 24.4988 10.7004 24.1661 10.2903 24.1661H9.3145C8.90442 24.1661 8.57178 24.4988 8.57178 24.9089C8.57178 25.3189 8.90442 25.6512 9.3145 25.6512Z" fill="#066D66"/>
<path d="M9.3145 28.7204H10.2903C10.7004 28.7204 11.033 28.3878 11.033 27.9777C11.033 27.5676 10.7004 27.2354 10.2903 27.2354H9.3145C8.90442 27.2354 8.57178 27.5676 8.57178 27.9777C8.57178 28.3878 8.90442 28.7204 9.3145 28.7204Z" fill="#066D66"/>
<path d="M50 32.9819V28.9177C50 28.9154 49.9997 28.9135 49.9997 28.9116V26.7888C49.9997 26.3787 49.6674 26.046 49.2569 26.046C48.8469 26.046 48.5146 26.3787 48.5146 26.7888V27.8862C47.2596 27.4704 44.9398 26.7117 42.3695 25.9236C41.9777 25.8034 41.5619 26.0239 41.4418 26.4161C41.3216 26.8078 41.5421 27.2232 41.9342 27.3434C44.8578 28.2399 47.4564 29.0982 48.515 29.4518V29.9473C41.1225 28.4752 33.1841 27.0405 33.1013 27.0256C32.6985 26.9532 32.3113 27.2206 32.2388 27.6242C32.166 28.0278 32.4341 28.4142 32.8377 28.4871C32.9209 28.5019 41.0553 29.9721 48.515 31.4614V32.4276C46.748 32.9342 40.7307 34.5162 34.5425 34.5204H30.9597C29.5395 29.7478 30.5039 25.8709 30.9262 24.5594C32.0652 24.6678 34.3907 25.1252 39.1304 26.5049C39.1995 26.5252 39.2693 26.5347 39.338 26.5347C39.6599 26.5347 39.9563 26.3237 40.0509 25.9995C40.1654 25.6058 39.9392 25.1934 39.5455 25.079C34.9175 23.732 31.8474 23.0484 30.42 23.0465C30.4181 23.0465 30.4158 23.0462 30.4139 23.0462C26.3237 23.0462 22.2008 23.9487 19.4619 24.7059C18.4372 24.9894 17.5595 25.5852 16.9201 26.3726C16.6096 25.3762 16.0614 24.4626 15.3016 23.703C14.0667 22.4694 12.4253 21.7896 10.6797 21.7896C10.6797 21.7896 6.51211 21.7884 6.48235 21.7907C2.90645 21.8644 0.0118614 24.7574 3.58316e-05 28.3032C-0.00568622 30.0576 0.674093 31.7067 1.91463 32.9472C2.64019 33.672 3.50612 34.2038 4.45026 34.5204H3.0846C1.38401 34.5204 0.000417301 35.904 0.000417301 37.6046C0.000417301 39.3052 1.38401 40.6887 3.0846 40.6887H3.48476V42.8048C3.48476 43.2148 3.81702 43.5471 4.2271 43.5471C4.63718 43.5471 4.96982 43.2148 4.96982 42.8048V40.6887H24.823C26.4203 41.9552 28.2223 42.7613 30.177 43.0664C30.2159 43.0725 30.2544 43.0752 30.2922 43.0752C30.6519 43.0752 30.9678 42.8135 31.025 42.4473C31.0883 42.0418 30.811 41.6623 30.4058 41.5989C29.3957 41.4414 28.4398 41.137 27.541 40.6887H45.0306V46.9117H4.96982V45.7749C4.96982 45.3648 4.63718 45.0325 4.2271 45.0325C3.81702 45.0325 3.48476 45.3648 3.48476 45.7749V47.654C3.48476 48.0641 3.81702 48.3967 4.2271 48.3967H45.7734C46.1834 48.3967 46.5161 48.0641 46.5161 47.654V40.6887H46.9159C48.6165 40.6887 50 39.3052 50 37.6046C50 35.904 48.6165 34.5204 46.9159 34.5204H46.3757C48.2026 34.0912 49.3653 33.7269 49.482 33.6899C49.7906 33.5919 50 33.3054 50 32.9819ZM19.4619 34.3457C19.6701 34.4033 19.8872 34.4616 20.1107 34.5204H12.6976C14.2067 34.0191 15.4751 32.9949 16.2804 31.6666C16.8904 32.9487 18.0333 33.9508 19.4619 34.3457ZM19.8574 26.1376C20.271 26.0231 20.7177 25.9053 21.1911 25.7882C20.9683 26.2452 21.2868 26.8601 21.8537 26.8601C22.2119 26.8601 22.5216 26.5961 22.5846 26.2452C22.6338 25.9724 22.5171 25.6916 22.2981 25.5265C24.3882 25.058 26.8666 24.6445 29.3709 24.5511C28.8723 26.2799 28.1693 29.9694 29.4091 34.5017C26.4676 34.3956 23.56 33.8471 21.2719 33.2837C20.6463 31.7982 20.3873 30.7053 20.3831 30.6858C20.2908 30.2864 19.8925 30.0373 19.4931 30.1289C19.0934 30.2208 18.8439 30.6195 18.9358 31.0193C18.9484 31.0738 19.1098 31.7612 19.4802 32.7855C18.1679 32.2552 17.281 30.967 17.281 29.5258C17.281 27.9503 18.3407 26.5568 19.8574 26.1376ZM7.39254 23.2747L10.6793 23.275C12.0285 23.275 13.2973 23.7999 14.2514 24.7532C15.21 25.7119 15.7353 26.9864 15.7311 28.3421C15.7219 31.1127 13.4255 33.368 10.6091 33.3756C10.553 33.3744 10.4969 33.3798 10.4405 33.392C10.0685 33.471 9.8164 33.8177 9.85607 34.1957C9.86103 34.2446 9.87095 34.2919 9.88468 34.3373C9.96326 34.7054 9.83433 35.0827 9.54288 35.3295C9.16981 35.6453 8.60676 35.6457 8.2333 35.3295C7.93613 35.0777 7.80834 34.6894 7.89837 34.311C7.90066 34.3029 7.90256 34.2942 7.90447 34.2862C7.92354 34.2133 7.95101 34.1427 7.98572 34.0763C8.47439 33.141 8.40916 32.0534 7.81483 31.239C7.39483 30.6626 6.77112 30.1735 5.95478 29.7795C6.60633 28.5809 7.66643 26.1315 7.39254 23.2747ZM1.4851 28.3081C1.49349 25.7721 3.41839 23.6679 5.90404 23.3239C6.27064 26.7788 4.28814 29.6784 4.26754 29.7081C4.13441 29.8981 4.09778 30.1392 4.16836 30.3601C4.23893 30.5809 4.4083 30.756 4.6265 30.8339C5.57217 31.1707 6.24126 31.6014 6.6151 32.1141C6.87107 32.4654 6.89434 32.9476 6.67614 33.3756H6.53652C5.18764 33.3756 3.91887 32.8503 2.96482 31.897C2.00619 30.9384 1.4809 29.6639 1.4851 28.3081ZM1.48548 37.6046C1.48548 36.723 2.20264 36.0054 3.0846 36.0054H6.8539C6.9733 36.1714 7.11216 36.3263 7.2739 36.4632C7.73395 36.8527 8.31112 37.0476 8.88828 37.0476C9.46545 37.0476 10.0426 36.8527 10.503 36.4628C10.6644 36.3259 10.8029 36.1714 10.9223 36.0054H20.9492C21.0392 36.166 21.1323 36.327 21.2292 36.4891C21.8369 37.5039 22.5079 38.4095 23.2346 39.2037H3.0846C2.20264 39.2037 1.48548 38.4861 1.48548 37.6046ZM46.9159 36.0054C47.7974 36.0054 48.5146 36.723 48.5146 37.6046C48.5146 38.4861 47.7974 39.2037 46.9159 39.2037H25.3392C24.3615 38.3507 23.4719 37.2837 22.675 36.0054H46.9159Z" fill="#066D66"/>
<path d="M23.7973 21.3376C26.7617 21.3376 29.7257 20.2092 31.9821 17.9528C32.2724 17.6625 32.2724 17.1925 31.9821 16.9026C31.6922 16.6127 31.2222 16.6127 30.9319 16.9026C26.9982 20.8367 20.5967 20.8367 16.6626 16.9026C16.3723 16.6127 15.9024 16.6127 15.6125 16.9026C15.3225 17.1925 15.3225 17.6629 15.6125 17.9528C17.8689 20.2092 20.8333 21.3376 23.7973 21.3376Z" fill="#066D66"/>
<path d="M23.7969 18.5517C26.1468 18.5517 28.3536 17.6388 30.0107 15.9817C30.301 15.6914 30.301 15.2215 30.0107 14.9315C29.7208 14.6416 29.2508 14.6416 28.9605 14.9315C27.5838 16.3083 25.75 17.0666 23.7969 17.0666C21.8438 17.0666 20.0101 16.3083 18.6333 14.9315C18.343 14.6416 17.8731 14.6416 17.5832 14.9315C17.2932 15.2215 17.2932 15.6918 17.5832 15.9817C19.2403 17.6388 21.4471 18.5517 23.7969 18.5517Z" fill="#066D66"/>
<path d="M23.7971 15.7653C25.4015 15.7653 26.9079 15.142 28.0398 14.0106C28.3301 13.7203 28.3301 13.2503 28.0398 12.9604C27.7498 12.6701 27.2799 12.6705 26.9896 12.9604C26.1385 13.8115 25.0048 14.2803 23.7971 14.2803C22.5893 14.2803 21.4556 13.8115 20.6045 12.9604C20.3142 12.6701 19.8443 12.6701 19.5544 12.9604C19.2644 13.2503 19.2644 13.7203 19.5544 14.0102C20.6862 15.142 22.1926 15.7653 23.7971 15.7653Z" fill="#066D66"/>
<path d="M23.7972 12.9803C25.5688 12.9803 27.0099 11.5391 27.0099 9.76753C27.0099 8.25157 25.9544 6.97861 24.5399 6.64253V2.40288C24.5399 1.9928 24.2073 1.66016 23.7972 1.66016C23.3871 1.66016 23.0545 1.9928 23.0545 2.40288V6.64253C21.64 6.97861 20.5845 8.25195 20.5845 9.76753C20.5845 11.5391 22.0257 12.9803 23.7972 12.9803ZM23.7972 8.04024C24.7497 8.04024 25.5249 8.815 25.5249 9.76753C25.5249 10.7204 24.7497 11.4952 23.7972 11.4952C22.8447 11.4952 22.0695 10.7204 22.0695 9.76753C22.0695 8.815 22.8447 8.04024 23.7972 8.04024Z" fill="#066D66"/>
<path d="M21.8536 29.9087C22.2118 29.9087 22.522 29.6444 22.5845 29.2934C22.7047 28.6224 21.8879 28.162 21.3714 28.6018C20.8576 29.039 21.1796 29.9087 21.8536 29.9087Z" fill="#066D66"/>
</g>
<defs>
<clipPath id="clip0">
<rect width="50" height="50" fill="white"/>
</clipPath>
</defs>
</svg>
