<svg width="50" height="50" viewBox="0 0 50 50" fill="none" xmlns="http://www.w3.org/2000/svg">
<g clip-path="url(#clip0)">
<path d="M30.0226 11.6348C30.0097 11.6219 29.9967 11.609 29.9838 11.609C26.2423 8.89958 25.4295 2.59054 25.4166 2.50023C25.3521 1.93254 24.836 1.53258 24.2683 1.59709C23.7006 1.6616 23.3007 2.17768 23.3652 2.74536C23.4039 3.02921 24.2425 9.73821 28.4872 13.0669C28.3582 13.5314 27.8679 14.4345 27.6873 14.7571C27.5454 15.0151 27.4293 15.2215 27.3519 15.3893C27.339 15.4151 27.3261 15.4409 27.3261 15.4538C27.1196 16.0343 26.9261 16.6149 26.7326 17.1826C26.0488 19.234 25.4037 21.1564 24.2296 22.8724C22.7072 25.027 20.9396 26.9236 19.5075 27.9299C18.5527 28.5879 17.4948 29.0653 16.3852 29.5556C15.366 30.02 14.2951 30.4845 13.2888 31.1296C12.7469 31.478 12.2308 31.865 11.7405 32.2779C10.76 33.0778 9.83104 33.8261 8.68277 33.9422C8.48924 33.9551 8.30861 33.9809 8.12798 33.9938C6.95391 34.097 5.72823 34.2003 4.42513 34.9615C-0.142151 37.658 -0.0389356 43.8638 0.0126721 46.8442C0.025574 47.4118 0.477141 47.8634 1.04483 47.8634H1.05773C1.62541 47.8505 2.07698 47.386 2.07698 46.8183V46.8054C1.98667 42.6381 2.34792 38.5482 5.44438 36.729C6.33462 36.213 7.19905 36.1356 8.28281 36.0452C8.47634 36.0323 8.66987 36.0065 8.86339 35.9936C10.6181 35.8259 11.8824 34.7937 13.0178 33.8906C13.4436 33.5294 13.8951 33.1939 14.3725 32.8843C15.2628 32.3166 16.2046 31.8908 17.2109 31.4522C18.3592 30.9361 19.5591 30.4071 20.6687 29.633C23.0168 27.9815 25.1069 25.1947 25.9068 24.0593C27.2486 22.0983 27.9841 19.9307 28.6808 17.8406C28.8614 17.2987 29.0549 16.744 29.2484 16.1892C29.3 16.0989 29.3904 15.9182 29.4936 15.7505C30.229 14.4216 31.2353 12.6024 30.0226 11.6348Z" fill="#066D66"/>
<path d="M47.6211 14.9893C45.4923 11.0413 42.0862 8.65447 37.777 8.08678C37.7641 8.08678 37.7512 8.08678 37.7253 8.08678C37.4673 8.06098 37.2222 8.06098 36.9899 8.06098C36.5126 8.04808 36.0739 8.04808 35.8159 7.89325C35.803 7.89325 35.803 7.88035 35.7901 7.88035C34.9643 7.41588 31.7131 3.68722 31.5324 1.04233C31.4937 0.474645 31.0034 0.0488812 30.4358 0.087587C29.8681 0.126293 29.4423 0.616566 29.481 1.18425C29.7004 4.61616 33.3387 8.8609 34.7708 9.68662C35.4933 10.1124 36.2674 10.1253 36.9641 10.1382C37.1706 10.1382 37.3641 10.1382 37.5447 10.164C41.2089 10.6414 43.9828 12.6154 45.802 16.0086C47.3115 18.847 48.0727 22.5498 47.9308 26.4591C47.5308 36.3162 42.6539 43.4639 34.1902 46.599C31.7905 47.5022 23.4429 49.3213 16.721 45.8378C16.721 45.8378 16.7081 45.8378 16.7081 45.8249C15.4695 45.2056 14.3342 44.1735 13.0956 42.5607L13.0827 42.5349C12.115 41.2318 10.799 39.4385 8.20574 40.4577C5.32861 41.5415 5.32861 45.7088 5.32861 47.4764C5.32861 48.044 5.79308 48.5085 6.36077 48.5085C6.92845 48.5085 7.39292 48.044 7.39292 47.4764C7.39292 46.2378 7.39292 42.9736 8.94115 42.3801H8.95405C9.97331 41.9801 10.3604 42.3027 11.4312 43.7477L11.457 43.7735L11.4699 43.7864C12.8891 45.6572 14.2696 46.8829 15.7921 47.6441C18.7079 49.1536 22.114 49.9148 25.9072 49.9148C26.4362 49.9148 26.9651 49.9019 27.507 49.8761C30.9905 49.6826 33.8161 48.9214 34.9127 48.4956C39.5832 46.7668 43.2603 43.9283 45.8665 40.0449C48.3823 36.2904 49.7757 31.7231 49.9822 26.4978C50.137 22.2273 49.2984 18.1503 47.6211 14.9893Z" fill="#066D66"/>
<path d="M44.5242 24.8335C44.3564 24.4464 43.7759 23.3239 42.6534 23.1691C42.6405 23.1691 42.6276 23.1691 42.6147 23.1691C42.0599 23.1175 40.989 23.2594 40.073 24.8722C37.9184 28.188 34.5897 29.9813 32.1641 30.9103C28.3194 32.4069 24.423 32.6649 20.2944 32.923C19.2364 32.9875 17.9978 33.1165 16.8108 33.5939C14.9401 34.3035 13.6241 35.7227 13.2112 37.4902C12.7983 39.2578 13.3273 41.1157 14.682 42.5994C15.5981 43.5799 16.9012 44.367 18.6558 45.0121C20.7846 45.7862 23.0425 46.1861 25.3132 46.1732C26.9647 46.1732 28.6161 45.9668 30.2288 45.5797C33.8672 44.7024 37.3636 42.7542 40.331 39.9416C42.576 37.7741 44.0468 35.5549 44.8338 33.1423C45.8402 30.3426 45.7241 27.3235 44.5242 24.8335ZM42.8727 32.4585C42.8727 32.4714 42.8598 32.4843 42.8598 32.4843C42.176 34.5744 40.8858 36.5226 38.886 38.445C36.1895 41.0125 33.0157 42.78 29.7257 43.5799C26.1776 44.4315 22.5909 44.2637 19.3525 43.0768C17.9333 42.5478 16.8624 41.9156 16.1915 41.1931C15.3142 40.2383 14.953 39.0643 15.211 37.9676C15.469 36.8709 16.3206 35.9807 17.5462 35.5162C17.5592 35.5162 17.5592 35.5162 17.5721 35.5033C18.501 35.1292 19.5331 35.026 20.4234 34.9744C24.5133 34.7163 28.758 34.4454 32.8866 32.8326C37.8023 30.9619 40.4472 28.0718 41.8019 25.9688C41.8148 25.9559 41.8277 25.9301 41.8406 25.9043C41.9567 25.6592 42.1373 25.4398 42.3437 25.2592C42.4599 25.3882 42.5502 25.5302 42.6147 25.685C42.6147 25.6979 42.6276 25.7108 42.6405 25.7237C43.6081 27.7235 43.6985 30.1748 42.8727 32.4585Z" fill="#066D66"/>
</g>
<defs>
<clipPath id="clip0">
<rect width="50" height="50" fill="white"/>
</clipPath>
</defs>
</svg>
