<svg width="40" height="40" viewBox="0 0 40 40" fill="none" xmlns="http://www.w3.org/2000/svg">
<path d="M34.5344 27.5016C34.1057 27.5016 33.7025 27.3348 33.3994 27.0314L33.0727 26.7049L32.7459 27.0314C32.1203 27.6568 31.1021 27.6568 30.4762 27.0316C29.8504 26.4057 29.8504 25.3875 30.4762 24.7617L30.8147 24.4232L29.5561 23.1644H27.5098C27.24 23.1644 27.0215 22.9459 27.0215 22.6762C27.0215 22.4064 27.24 22.1879 27.5098 22.1879H29.7584C29.8879 22.1879 30.0121 22.2393 30.1037 22.3309L31.8506 24.0779C32.0414 24.2685 32.0414 24.5777 31.8506 24.7684L31.1668 25.4521C30.9219 25.6973 30.9219 26.0959 31.1668 26.341C31.4117 26.5857 31.8107 26.5859 32.0557 26.3408L32.7275 25.6691C32.9184 25.4783 33.2273 25.4783 33.418 25.6691L34.0898 26.341C34.3272 26.5783 34.7412 26.5783 34.9785 26.341C35.0971 26.2223 35.1625 26.0644 35.1625 25.8967C35.1625 25.7289 35.0971 25.5711 34.9785 25.4523L33.666 24.1396C33.6461 24.1197 33.6281 24.0982 33.6119 24.0752C33.5908 24.0453 33.567 24.0168 33.5408 23.9906L31.4549 21.9047C31.2641 21.7141 31.2641 21.4049 31.4549 21.2143L33.5408 19.1283C33.567 19.1021 33.5908 19.0736 33.6119 19.0437C33.6281 19.0207 33.6463 18.9992 33.666 18.9793L34.9785 17.6666C35.0973 17.5478 35.1625 17.39 35.1625 17.2223C35.1625 17.0545 35.0971 16.8967 34.9785 16.7779C34.7336 16.533 34.3348 16.5332 34.0898 16.7779L33.418 17.4498C33.2271 17.6406 32.9182 17.6406 32.7275 17.4498L32.0557 16.7779C31.8107 16.5332 31.4117 16.5332 31.1668 16.7779C30.9219 17.0228 30.9219 17.4215 31.1668 17.6666L31.8506 18.3504C32.0414 18.541 32.0414 18.8502 31.8506 19.0408L30.1037 20.7879C30.0121 20.8795 29.8881 20.9309 29.7584 20.9309H27.5098C27.24 20.9309 27.0215 20.7123 27.0215 20.4426C27.0215 20.1728 27.24 19.9543 27.5098 19.9543H29.5562L30.8148 18.6955L30.4764 18.3568C29.8506 17.7311 29.8506 16.7129 30.4764 16.0871C31.102 15.4615 32.1201 15.4615 32.7461 16.0871L33.0729 16.4139L33.3996 16.0873C34.0254 15.4617 35.0438 15.4617 35.6691 16.0873C35.9725 16.3904 36.1393 16.7934 36.1393 17.2223C36.1393 17.6512 35.9725 18.0541 35.6691 18.3572L34.3838 19.6428C34.3375 19.7049 34.2863 19.7641 34.2314 19.8187L32.4908 21.5596L34.2314 23.3004C34.2863 23.3553 34.3375 23.4143 34.3838 23.4764L35.6691 24.7619C35.9725 25.065 36.1393 25.468 36.1393 25.8969C36.1393 26.3258 35.9725 26.7287 35.6691 27.0318C35.366 27.3348 34.9629 27.5016 34.5344 27.5016Z" fill="#066D66"/>
<path d="M5.46572 27.7973C5.03721 27.7973 4.63408 27.6305 4.33096 27.3272C4.02764 27.0241 3.86084 26.6211 3.86084 26.1922C3.86084 25.7633 4.02764 25.3604 4.33096 25.0573L5.61631 23.7717C5.6626 23.7096 5.71377 23.6504 5.76865 23.5958L7.50928 21.8549L5.76865 20.1141C5.71377 20.0592 5.6626 20.0002 5.61631 19.9381L4.33096 18.6526C4.02764 18.3497 3.86084 17.9465 3.86084 17.5178C3.86084 17.0891 4.02764 16.686 4.33096 16.3829C4.95693 15.7573 5.9749 15.7577 6.60049 16.3829L6.92725 16.7096L7.254 16.3831C7.87979 15.7575 8.89795 15.7579 9.52373 16.3829C10.1495 17.0088 10.1495 18.027 9.52373 18.6528L9.18525 18.9915L10.4438 20.2502H12.4903C12.7601 20.2502 12.9786 20.4688 12.9786 20.7385C12.9786 21.0083 12.7601 21.2268 12.4903 21.2268H10.2417C10.1122 21.2268 9.98799 21.1754 9.89639 21.0838L8.14951 19.3368C7.95869 19.1461 7.95869 18.837 8.14951 18.6463L8.8333 17.9625C9.07822 17.7176 9.07822 17.319 8.8333 17.0739C8.58838 16.8291 8.18936 16.829 7.94443 17.0741L7.27256 17.7458C7.08174 17.9366 6.77275 17.9366 6.58213 17.7458L5.91025 17.0739C5.66533 16.8293 5.2665 16.829 5.02158 17.0739C4.90303 17.1924 4.8376 17.3504 4.8376 17.5182C4.8376 17.686 4.90283 17.8438 5.02158 17.9624L6.33408 19.275C6.354 19.295 6.37197 19.3165 6.38818 19.3395C6.40928 19.3694 6.43311 19.3979 6.45928 19.4241L8.54521 21.51C8.73603 21.7006 8.73603 22.0098 8.54521 22.2004L6.45928 24.2864C6.43311 24.3126 6.40928 24.3411 6.38818 24.3709C6.37197 24.394 6.35381 24.4155 6.33408 24.4354L5.02158 25.7481C4.90283 25.8668 4.8376 26.0247 4.8376 26.1924C4.8376 26.3602 4.90303 26.518 5.02158 26.6368C5.25889 26.8743 5.67295 26.8741 5.91025 26.6368L6.58213 25.9649C6.77295 25.7741 7.08193 25.7741 7.27256 25.9649L7.94443 26.6368C8.18936 26.8815 8.58838 26.8817 8.8333 26.6366C9.07822 26.3917 9.07822 25.993 8.8333 25.7481L8.14951 25.0643C7.95869 24.8737 7.95869 24.5645 8.14951 24.3739L9.89639 22.6268C9.98799 22.5352 10.112 22.4838 10.2417 22.4838H12.4903C12.7601 22.4838 12.9786 22.7024 12.9786 22.9721C12.9786 23.2418 12.7601 23.4604 12.4903 23.4604H10.4438L9.18525 24.7192L9.52373 25.0579C10.1495 25.6836 10.1495 26.7018 9.52373 27.3276C8.89795 27.9532 7.87979 27.953 7.254 27.3278L6.92725 27.001L6.60049 27.3276C6.29756 27.6303 5.89443 27.7973 5.46572 27.7973Z" fill="#066D66"/>
<path d="M13.6587 24.5012C12.8019 22.8731 12.8019 20.929 13.6589 19.3006L13.889 18.8631C14.9687 16.8118 14.8981 14.4022 13.6999 12.4176C12.5017 10.4331 10.4024 9.24829 8.08408 9.24829C5.64131 9.24829 3.41689 10.5911 2.2792 12.7528C-0.735645 18.4811 -0.735645 25.3207 2.2792 31.0491C3.41689 33.2108 5.64131 34.5536 8.08408 34.5536C10.4024 34.5536 12.5017 33.3688 13.6999 31.384C14.8981 29.3993 14.9687 26.9899 13.8892 24.9387L13.6587 24.5012ZM12.864 30.8795C11.844 32.5688 10.0573 33.5772 8.08408 33.5772C6.00498 33.5772 4.11182 32.4342 3.14326 30.5942C0.278418 25.1508 0.278418 18.6512 3.14326 13.2077C4.11182 11.3678 6.00498 10.2249 8.08408 10.2249C10.0573 10.2249 11.844 11.2334 12.864 12.9225C13.8837 14.6116 13.9438 16.6624 13.0247 18.4084L12.7946 18.8459C11.7878 20.759 11.7878 23.0432 12.7944 24.9561L13.0249 25.3938C13.9438 27.1397 13.8837 29.1905 12.864 30.8795Z" fill="#066D66"/>
<path d="M37.7209 12.753C36.5832 10.5912 34.3588 9.24847 31.916 9.24847C29.5977 9.24847 27.4984 10.4332 26.3002 12.418C25.1019 14.4028 25.0314 16.8121 26.1109 18.8633L26.3414 19.301C27.1982 20.9291 27.1982 22.8733 26.3412 24.5016L26.1111 24.9391C25.0314 26.9905 25.1019 29.4 26.3002 31.3846C27.4984 33.3692 29.5977 34.5541 31.916 34.5541C34.3588 34.5541 36.5832 33.2112 37.7209 31.0495C40.7357 25.3209 40.7357 18.4813 37.7209 12.753ZM36.857 30.5944C35.8885 32.4342 33.9953 33.5772 31.9162 33.5772C29.943 33.5772 28.1562 32.5688 27.1363 30.8795C26.1166 29.1905 26.0564 27.1397 26.9756 25.3936L27.2057 24.9561C28.2125 23.043 28.2125 20.7588 27.2059 18.8459L26.9754 18.4082C26.0564 16.6623 26.1168 14.6116 27.1363 12.9225C28.1562 11.2334 29.943 10.2248 31.9162 10.2248C33.9953 10.2248 35.8885 11.3678 36.857 13.2077C39.7219 18.6512 39.7219 25.1508 36.857 30.5944Z" fill="#066D66"/>
<path d="M26.088 22.968C26.088 22.6983 25.8694 22.4797 25.5997 22.4797H21.0673C20.7976 22.4797 20.579 22.6983 20.579 22.968V37.4887C20.579 37.8079 20.3194 38.0674 20.0003 38.0674C19.6812 38.0674 19.4216 37.8077 19.4216 37.4887V22.968C19.4216 22.6983 19.203 22.4797 18.9333 22.4797H14.4009C14.1312 22.4797 13.9126 22.6983 13.9126 22.968C13.9126 23.2377 14.1312 23.4563 14.4009 23.4563H18.445V37.4887C18.445 38.3463 19.1427 39.044 20.0003 39.044C20.8579 39.044 21.5556 38.3463 21.5556 37.4887V23.4563H25.5997C25.8694 23.4563 26.088 23.2377 26.088 22.968Z" fill="#066D66"/>
<path d="M13.9126 20.834C13.9126 21.1037 14.1312 21.3223 14.4009 21.3223H25.5997C25.8694 21.3223 26.088 21.1037 26.088 20.834C26.088 20.5643 25.8694 20.3457 25.5997 20.3457H14.4009C14.1312 20.3457 13.9126 20.5643 13.9126 20.834Z" fill="#066D66"/>
<path d="M20.6371 14.0334H19.3635C18.885 14.0334 18.467 13.7098 18.3473 13.2465L18.0674 12.1611L17.1025 12.7307C16.69 12.9738 16.1654 12.907 15.8271 12.5686L14.9268 11.668C14.5887 11.3299 14.5217 10.8055 14.7641 10.3932L15.334 9.42755L14.249 9.14806C13.7854 9.02794 13.4619 8.60997 13.4619 8.13146V6.85802C13.4619 6.37951 13.7854 5.96154 14.2484 5.84161L15.334 5.56173L14.7645 4.59689C14.5217 4.184 14.5885 3.65978 14.9266 3.3215L15.8271 2.42091C16.1656 2.08263 16.6893 2.01564 17.1021 2.25841L18.0674 2.82814L18.3471 1.74318C18.467 1.2795 18.885 0.955872 19.3635 0.955872H20.6371C21.1158 0.955872 21.5338 1.2795 21.6535 1.74279L21.9334 2.82814L22.8982 2.25861C23.3109 2.01564 23.8355 2.08224 24.1736 2.42072L25.074 3.32111C25.4123 3.65958 25.4791 4.184 25.2363 4.5963L24.6666 5.56154L25.7518 5.84122C25.7519 5.84122 25.7521 5.84122 25.7523 5.84142C26.2154 5.96134 26.5389 6.37931 26.5389 6.85783V8.13126C26.5389 8.60978 26.2154 9.02775 25.7523 9.14767L24.6666 9.42736L25.2361 10.3922C25.4791 10.8049 25.4123 11.3293 25.074 11.6676L24.1736 12.5682C23.8353 12.9067 23.3113 12.9735 22.8986 12.7307L21.9334 12.161L21.6537 13.2459C21.5338 13.7098 21.1158 14.0334 20.6371 14.0334ZM18.3783 10.9223C18.4416 10.9223 18.5051 10.9346 18.5652 10.9594C18.707 11.018 18.8129 11.1401 18.8512 11.2887L19.2928 13.0022C19.301 13.0342 19.3301 13.0567 19.3635 13.0567H20.6371C20.6705 13.0567 20.6998 13.034 20.7082 13.0018L21.1496 11.2887C21.1879 11.1401 21.2937 11.0182 21.4355 10.9594C21.5773 10.9006 21.7385 10.9119 21.8707 10.9901L23.3947 11.8895C23.4232 11.9061 23.4594 11.9016 23.4834 11.8777L24.3838 10.9772C24.4074 10.9535 24.4121 10.9168 24.3951 10.8881L23.4959 9.36447C23.418 9.23224 23.4066 9.0713 23.4654 8.92931C23.5242 8.78751 23.6461 8.68165 23.7947 8.64337L25.5082 8.20197C25.54 8.19376 25.5625 8.16447 25.5625 8.13107V6.85763C25.5625 6.82423 25.54 6.79513 25.5078 6.78654L23.7947 6.34513C23.6461 6.30685 23.5242 6.20099 23.4654 6.05919C23.4066 5.9174 23.418 5.75626 23.4959 5.62404L24.3951 4.10001C24.4119 4.0715 24.4072 4.03497 24.3834 4.01115L23.4832 3.11075C23.4596 3.08712 23.4223 3.08263 23.3941 3.09943L21.8705 3.99865C21.7385 4.07677 21.5773 4.0881 21.4353 4.02931C21.2936 3.97072 21.1877 3.84865 21.1494 3.70001L20.7078 1.98654C20.6996 1.9547 20.6705 1.93204 20.6369 1.93204H19.3633C19.3299 1.93204 19.3008 1.9547 19.2924 1.98693L18.851 3.70001C18.8127 3.84865 18.7068 3.97052 18.565 4.02931C18.423 4.0881 18.2619 4.07677 18.1299 3.99865L16.6059 3.09923C16.5771 3.08263 16.5408 3.08712 16.5172 3.11095L15.6168 4.01134C15.5932 4.03497 15.5885 4.07169 15.6055 4.1006L16.5047 5.62384C16.5826 5.75607 16.5939 5.9172 16.5352 6.059C16.4764 6.20079 16.3545 6.30685 16.2059 6.34493L14.4924 6.78654C14.4605 6.79474 14.4381 6.82404 14.4381 6.85743V8.13087C14.4381 8.16427 14.4605 8.19357 14.493 8.20197L16.2061 8.64318C16.3547 8.68146 16.4766 8.78732 16.5353 8.92912C16.5941 9.07091 16.5828 9.23204 16.5049 9.36427L15.6055 10.8883C15.5889 10.9164 15.5934 10.9531 15.6172 10.977L16.5176 11.8776C16.5412 11.9014 16.5783 11.9057 16.6066 11.8889L18.1303 10.9897C18.2062 10.9451 18.2922 10.9223 18.3783 10.9223ZM20.0004 10.0426C18.5955 10.0426 17.4523 8.89962 17.4523 7.49474C17.4523 6.08986 18.5955 4.94669 20.0004 4.94669C21.4053 4.94669 22.5484 6.08986 22.5484 7.49474C22.5484 8.89962 21.4053 10.0426 20.0004 10.0426ZM20.0004 5.92325C19.1338 5.92325 18.4289 6.62814 18.4289 7.49474C18.4289 8.36115 19.1338 9.06603 20.0004 9.06603C20.867 9.06603 21.5719 8.36115 21.5719 7.49474C21.5719 6.62814 20.867 5.92325 20.0004 5.92325Z" fill="#066D66"/>
</svg>
