<svg width="39" height="50" viewBox="0 0 39 50" fill="none" xmlns="http://www.w3.org/2000/svg">
<path d="M21.5095 0C12.0939 0 4.43389 7.66006 4.43389 17.0756V23.2093C4.43389 29.9666 9.81846 35.4988 16.5536 35.8053V36.5709L3.37334 40.4029C1.39561 41.0036 0.0668945 42.7961 0.0668945 44.863V50H1.53896V44.8629C1.53896 43.4486 2.44814 42.2223 3.79287 41.8139L18.0258 37.6759V33.8745C19.237 34.4299 20.583 34.7399 22.0003 34.7399C23.3805 34.7399 24.7332 34.443 25.9748 33.8751V50H27.4469V33.048V32.0412V23.0189L27.4339 22.951C26.3758 17.3857 21.4906 13.3465 15.8178 13.3465H12.4321V25.1718C12.4321 28.4255 14.065 31.3045 16.5538 33.0339V34.332C10.6306 34.0274 5.90615 29.155 5.90615 23.2093V17.0756C5.90615 8.47178 12.9059 1.47207 21.5097 1.47207C30.1135 1.47207 37.1132 8.47178 37.1132 17.0756V48.528H37.0642V50H37.1132H38.5361H38.5852V17.0756C38.5851 7.66006 30.925 0 21.5095 0ZM13.904 25.1718V14.8185H15.8177C20.7616 14.8185 25.0223 18.3218 25.9747 23.1589V32.0412V32.2252C24.7649 32.9085 23.3991 33.2679 22.0002 33.2679C17.5359 33.2679 13.904 29.6359 13.904 25.1718Z" fill="#066D66"/>
</svg>
