<svg width="50" height="32" viewBox="0 0 50 32" fill="none" xmlns="http://www.w3.org/2000/svg">
<path d="M50 25.74C50 25.2281 49.7108 24.7909 49.263 24.6269C48.8525 24.4762 48.399 24.601 48.1075 24.9454L47.2462 25.9624L45.1328 17.4637C44.9883 16.8781 44.5332 16.4291 43.9445 16.2914L37.9642 14.899L41.2426 9.91705L42.7658 7.96393C42.9886 7.67859 42.9691 7.27308 42.72 7.00987L42.5041 6.78175L43.0367 6.29576C43.3609 5.99974 43.5486 5.59538 43.565 5.15631C43.5814 4.71724 43.4242 4.29915 43.1225 3.97948L42.6975 3.52934C42.1867 2.99032 41.3765 2.8652 40.7276 3.22493L39.6847 3.804L39.6572 3.77501C39.3749 3.4767 38.9442 3.37752 38.5597 3.52095C38.1752 3.66514 37.9158 4.02296 37.8986 4.43342L37.8834 4.80383L35.643 6.0478L33.3248 5.34628C33.3244 5.34628 33.3244 5.34628 33.3244 5.3459L29.3686 4.1252C29.3625 4.12329 29.356 4.12138 29.3495 4.11948C28.3699 3.84634 27.3094 4.02487 26.4748 4.59555C26.3935 4.09468 26.1852 3.62013 25.8598 3.2131L24.3328 1.30156C23.3044 0.0140987 21.4203 -0.196473 20.1328 0.831588L19.7247 1.15774C19.101 1.65594 18.7088 2.367 18.6199 3.16046C18.5314 3.95392 18.7569 4.73402 19.2551 5.35773L20.7821 7.26927C21.0926 7.65799 21.4817 7.94752 21.9082 8.13559C21.1369 8.89853 20.7474 9.99144 20.8805 11.0828L22.4129 23.5935L22.0974 23.9338L20.2461 23.6973C19.8444 23.6458 19.4778 23.9296 19.4267 24.3309C19.3756 24.7322 19.659 25.0992 20.0603 25.1503L21.6457 25.3528V27.8076L17.1001 27.3422C17.0998 27.3422 17.0994 27.3422 17.099 27.3422C17.0986 27.3422 17.0982 27.3418 17.0975 27.3418L13.3263 26.9695C12.9227 26.9302 12.5648 27.2239 12.5252 27.6264C12.4855 28.0289 12.7796 28.3874 13.1821 28.4275L16.293 28.7346V30.4355H13.2542C13.2515 30.4355 13.2492 30.4359 13.2465 30.4359H10.635V30.1636C10.635 29.0863 10.0288 28.1483 9.13963 27.6718C9.50661 27.2335 9.75685 26.6949 9.8423 26.1032H10.1978C10.7578 26.1032 11.3041 25.9167 11.7779 25.5634L13.0596 24.6033C13.3194 24.4095 13.6086 24.3263 13.895 24.3625L16.9327 24.7509C17.334 24.8024 17.701 24.5182 17.7521 24.1173C17.8032 23.716 17.5194 23.349 17.1181 23.2979L14.08 22.9095C13.4182 22.8256 12.7449 23.0102 12.1822 23.4302L10.9009 24.39C10.6831 24.5525 10.4397 24.6383 10.1974 24.6383H9.8423C9.62219 23.1136 8.30727 21.9383 6.72264 21.9383H4.09737C2.35901 21.9383 0.944901 23.3524 0.944901 25.0908V25.6508C0.944901 26.3889 1.20049 27.0683 1.62697 27.6058C0.666809 28.0575 0 29.034 0 30.1636V30.7339C0 31.377 0.523376 31.9004 1.16653 31.9004L46.9208 31.9008H49.2676C49.6651 31.9008 50 31.5658 50 31.1683V25.74ZM48.5352 26.7067V29.1141L47.8092 28.2253L47.6822 27.7138L48.5352 26.7067ZM31.493 30.4359L31.2901 29.903C31.02 29.1923 30.4321 28.7079 29.7562 28.6384L28.978 28.5587L30.4276 26.355L42.522 27.7206L42.8799 28.6888L42.8566 30.4359H31.493ZM17.7578 28.8822L29.607 30.0957C29.705 30.1056 29.8401 30.2109 29.921 30.4233L29.9255 30.4355H17.7578V28.8822ZM31.3305 24.9824L33.6765 21.4161L33.1665 25.19L31.3305 24.9824ZM44.3367 29.2942H46.7907L47.723 30.4355H44.3214L44.3367 29.2942ZM43.6119 17.7181C43.6611 17.7295 43.6989 17.7666 43.7111 17.8158L46.1563 27.6504C46.1594 27.6623 46.1624 27.6737 46.1658 27.6848L46.2013 27.829H44.1238L43.7393 26.7891C43.7351 26.7776 43.7309 26.7666 43.726 26.7555L41.5756 20.9438C41.3704 20.3884 40.8783 19.9943 40.2924 19.915L38.092 19.6171C37.6907 19.5629 37.3222 19.8437 37.2681 20.2446C37.2139 20.6455 37.4947 21.0144 37.8956 21.0686L40.0955 21.3665C40.144 21.373 40.1848 21.4058 40.202 21.4523L41.9518 26.1818L34.6226 25.3544L35.537 18.5871L37.1056 16.2033L43.6119 17.7181ZM39.402 5.6362L40.9157 7.23494C40.9164 7.23608 40.9172 7.23685 40.918 7.23799C40.9199 7.2399 40.9218 7.24142 40.9237 7.24371L41.2235 7.55995L40.5849 8.37858L39.2574 7.02284L39.3127 5.68579L39.402 5.6362ZM41.4379 4.5059C41.5024 4.47005 41.5829 4.48302 41.6328 4.53566L42.057 4.98503C42.0956 5.02585 42.1024 5.07086 42.1009 5.10176C42.0998 5.13228 42.0898 5.17653 42.049 5.21391L41.497 5.71783L40.7242 4.90187L41.4379 4.5059ZM36.0828 7.47908L37.812 6.51892L37.7918 7.00949L35.8585 9.09422L33.0807 8.2527L33.3374 7.55575L33.5609 6.94845L35.5152 7.53973C35.7048 7.59695 35.9097 7.57521 36.0828 7.47908ZM33.4473 11.6947L31.6509 9.35171L31.9153 9.42991L34.7507 10.289L33.4473 11.6947ZM28.9471 5.52824L32.1583 6.5193L31.757 7.60878L31.6753 7.83079L30.7613 7.55995C30.7339 7.55194 30.706 7.54545 30.6778 7.54049C30.2551 7.46763 29.8389 7.65761 29.6169 8.02496C29.3949 8.39232 29.4205 8.85008 29.6814 9.19035L32.4368 12.7842L28.355 17.1856L25.7759 13.1744C25.5322 12.7964 25.0645 12.6339 24.6391 12.7792C24.2138 12.9242 23.9429 13.3381 23.9807 13.7859L24.107 15.2855L22.9107 15.612L22.3343 10.9054C22.2462 10.181 22.5502 9.45471 23.1277 9.01068L24.1978 8.18785C24.4736 8.08066 24.7387 7.93341 24.9821 7.73924L25.3899 7.41308C25.5943 7.24982 25.7736 7.06328 25.9254 6.85919L27.2118 5.86928C27.702 5.492 28.3501 5.36459 28.9471 5.52824ZM25.9548 19.7738L25.6191 15.7863C25.6191 15.7852 25.6187 15.7841 25.6187 15.7829L25.6046 15.6162L27.3266 18.2949L25.9548 19.7738ZM23.7164 22.1878L23.0907 17.0811L24.2321 16.7698L24.6075 21.2272L23.7164 22.1878ZM20.3995 4.44372C20.1454 4.12558 20.0302 3.72771 20.0756 3.32335C20.121 2.91899 20.3209 2.55621 20.639 2.30215L21.0472 1.97638C21.7033 1.45224 22.6639 1.55943 23.188 2.21556L24.7154 4.1271C24.9695 4.44525 25.0843 4.84312 25.0389 5.24748C25.0149 5.46225 24.9462 5.66481 24.8402 5.84601L23.4978 6.87788C22.9343 7.02246 22.3125 6.83821 21.9265 6.35527L20.3995 4.44372ZM23.1106 24.9954L23.119 24.9862L24.5575 23.4352L25.9014 21.9864C25.9026 21.9848 25.9041 21.9833 25.9052 21.9814L38.5269 8.37057L39.7106 9.57983L34.2209 17.9222C34.2182 17.9264 34.2155 17.9306 34.2129 17.9348C34.2117 17.9367 34.2106 17.9386 34.2094 17.9405C34.2068 17.9443 34.2045 17.9481 34.2022 17.9519L27.335 28.3905L23.1106 27.9575V24.9954ZM2.40974 25.0908C2.40974 24.16 3.16658 23.4031 4.09737 23.4031H6.72264C7.65305 23.4031 8.41026 24.16 8.41026 25.0908V25.6508C8.41026 26.5816 7.65305 27.3384 6.72264 27.3384H4.09737C3.16658 27.3384 2.40974 26.5816 2.40974 25.6508V25.0908ZM1.46484 30.1636C1.46484 29.4136 2.07481 28.8032 2.82516 28.8032H7.80983C8.5598 28.8032 9.17015 29.4136 9.17015 30.1636V30.4355H1.46484V30.1636Z" fill="#066D66"/>
</svg>
