<svg width="46" height="50" viewBox="0 0 46 50" fill="none" xmlns="http://www.w3.org/2000/svg">
<path d="M45.141 47.4397L42.9291 34.4902C42.6907 33.095 41.701 31.9742 40.3458 31.5654L34.3798 29.7653C34.2562 28.3069 33.6583 26.9311 32.6632 25.842C31.8672 24.9709 30.866 24.3366 29.7624 23.9866C29.9513 23.7771 30.1264 23.5682 30.287 23.3639C31.7058 21.5595 32.4653 19.5716 32.6587 18.215H33.1189C34.316 18.215 35.2899 17.2412 35.2899 16.044V14.9312C35.2899 14.1322 34.8405 13.4083 34.1646 13.0326V10.3564C34.1646 9.95205 33.8368 9.62422 33.4324 9.62422C33.028 9.62422 32.7003 9.95195 32.7003 10.3564V13.3607C32.4151 13.4103 32.0749 13.4958 31.7269 13.6424C31.6912 13.6554 31.6565 13.6704 31.6237 13.6885C31.5451 13.7243 31.4664 13.7621 31.388 13.8047V7.9041C31.388 6.27393 30.0618 4.94775 28.4316 4.94775H26.4106C25.7136 4.94775 25.0326 5.19062 24.493 5.63184L24.2946 5.79395C23.9304 6.0918 23.4706 6.25586 23 6.25586C22.5294 6.25586 22.0695 6.0918 21.7053 5.79395L21.507 5.63184C20.9674 5.19072 20.2864 4.94775 19.5894 4.94775H17.5682C15.938 4.94775 14.6118 6.27393 14.6118 7.9041V13.8047C14.5334 13.7621 14.4547 13.7243 14.3761 13.6885C14.3433 13.6704 14.3087 13.6554 14.273 13.6424C13.925 13.4958 13.5847 13.4103 13.2996 13.3607V5.76416C13.2996 3.39326 15.2285 1.46436 17.5994 1.46436H28.4003C30.7713 1.46436 32.7001 3.39326 32.7001 5.76416V6.91514C32.7001 7.31953 33.0279 7.64736 33.4322 7.64736C33.8365 7.64736 34.1644 7.31963 34.1644 6.91514V5.76416C34.1644 2.58584 31.5786 0 28.4003 0H17.5994C14.421 0 11.8353 2.58584 11.8353 5.76416V13.0327C11.1594 13.4084 10.71 14.1322 10.71 14.9312V16.0441C10.71 17.2413 11.6839 18.2151 12.881 18.2151H13.3412C13.5345 19.5717 14.2941 21.5596 15.7129 23.364C15.8733 23.5681 16.0483 23.7768 16.237 23.9861C13.6999 24.792 11.8497 27.073 11.6201 29.7653L5.6539 31.5654C4.29873 31.9742 3.30888 33.095 3.0706 34.4902L2.17236 39.7489C2.10429 40.1476 2.37226 40.5258 2.7708 40.5938C3.16923 40.6621 3.54765 40.394 3.61582 39.9954L4.51406 34.7367C4.6582 33.8926 5.25703 33.2146 6.07685 32.9674L11.5949 31.3024V32.7508C10.3301 32.9836 9.25381 33.8524 8.81054 35.0563C8.69287 35.3758 8.61972 35.7104 8.59316 36.0506L8.05986 42.8958C8.01963 43.4114 8.19804 43.9249 8.54912 44.3043C8.90019 44.6838 9.39814 44.9016 9.91523 44.9016H10.8281C11.2325 44.9016 11.5603 44.5738 11.5603 44.1693C11.5603 43.7648 11.2325 43.4372 10.8281 43.4372H9.91523C9.80498 43.4372 9.69892 43.3909 9.62402 43.3099C9.54922 43.229 9.51123 43.1196 9.51982 43.0098L10.0531 36.1645C10.0692 35.9583 10.1135 35.7557 10.1848 35.5622C10.4932 34.7248 11.326 34.1577 12.2573 34.1512L12.3779 34.1503C12.3836 34.1502 12.3892 34.1502 12.3947 34.1502C13.2999 34.1502 14.1012 34.6635 14.4392 35.4614C14.534 35.6852 14.5916 35.9217 14.6105 36.1645L15.144 43.0099C15.1525 43.1196 15.1145 43.229 15.0397 43.31C14.9649 43.3908 14.8588 43.4372 14.7485 43.4372H13.8356C13.4312 43.4372 13.1034 43.7649 13.1034 44.1693C13.1034 44.5737 13.4312 44.9016 13.8356 44.9016H14.7485C15.2656 44.9016 15.7637 44.6839 16.1146 44.3043C16.4658 43.9247 16.6442 43.4113 16.604 42.8959L16.0705 36.0506C16.0393 35.65 15.944 35.2595 15.7875 34.89C15.3052 33.7517 14.2738 32.9602 13.0592 32.746V30.8606L15.5762 30.1012C15.8052 30.5835 16.259 31.6258 17.1579 33.8726C18.0639 36.1396 19.1899 39.0453 20.2699 41.8701C20.2776 41.8938 20.2865 41.917 20.2965 41.9396C21.0172 43.8255 21.7163 45.6726 22.3143 47.2659C22.4215 47.5517 22.6946 47.7409 22.9998 47.7409C23.305 47.7409 23.5781 47.5517 23.6853 47.2659C24.2832 45.6726 24.9823 43.8255 25.7031 41.9396C25.7132 41.917 25.722 41.8937 25.7297 41.8701C26.8089 39.047 27.9344 36.1431 28.8399 33.8768C29.74 31.6271 30.1942 30.5839 30.4233 30.1012L32.9403 30.8606V35.1854C31.1964 35.5241 29.8754 37.0622 29.8754 38.9038C29.8754 40.9928 31.5749 42.6924 33.664 42.6924C35.753 42.6924 37.4525 40.9929 37.4525 38.9038C37.4525 37.0683 36.1402 35.5339 34.4047 35.1885V31.3025L39.9228 32.9675C40.7427 33.2147 41.3414 33.8927 41.4856 34.7368L43.6976 47.6863C43.7343 47.9011 43.6771 48.111 43.5366 48.2775C43.3962 48.4439 43.1988 48.5357 42.981 48.5357H3.01865C2.80078 48.5357 2.60351 48.444 2.46298 48.2775C2.32255 48.111 2.26533 47.9012 2.30205 47.6863L3.03203 43.4127C3.10009 43.0141 2.83212 42.6358 2.43359 42.5678C2.03515 42.4994 1.65673 42.7677 1.58857 43.1662L0.85859 47.4398C0.749703 48.0777 0.926559 48.7272 1.34375 49.2219C1.76113 49.7164 2.37158 50 3.01865 50H42.981C43.628 50 44.2386 49.7164 44.6559 49.2218C45.073 48.7271 45.2499 48.0776 45.141 47.4397ZM32.7089 14.8524C33.099 14.7552 33.4122 14.7569 33.4157 14.757C33.5419 14.7587 33.6645 14.7292 33.7735 14.6721C33.8061 14.7532 33.8254 14.8404 33.8254 14.9312V16.0441C33.8254 16.4338 33.5084 16.7508 33.1187 16.7508H32.7089V14.8524ZM13.2907 16.7508H12.8809C12.4912 16.7508 12.1742 16.4338 12.1742 16.0441V14.9312C12.1742 14.8404 12.1936 14.7532 12.2261 14.6722C12.335 14.7293 12.4576 14.7588 12.5839 14.757C12.5894 14.758 12.9018 14.7563 13.2907 14.8528V16.7508ZM14.7551 17.5718V15.6481C14.977 15.7146 15.2196 15.7056 15.4436 15.6121C15.8279 15.4518 16.0762 15.0794 16.0762 14.6633V7.9041C16.0762 7.08145 16.7455 6.41211 17.5682 6.41211H19.5892C19.9493 6.41211 20.3012 6.5376 20.58 6.76553L20.7782 6.92764C21.4033 7.43877 22.1923 7.72012 22.9998 7.72012C23.8073 7.72012 24.5963 7.43867 25.2214 6.92764L25.4196 6.76553C25.6983 6.5376 26.0503 6.41211 26.4104 6.41211H28.4314C29.2541 6.41211 29.9234 7.08145 29.9234 7.9041V14.6634C29.9234 15.0794 30.1717 15.4519 30.556 15.6122C30.6843 15.6657 30.8186 15.6917 30.9519 15.6917C31.0512 15.6917 31.1497 15.6771 31.2445 15.6488V17.5718C31.2445 18.6408 30.5055 20.7168 29.1357 22.4588C28.682 23.0358 28.0988 23.6558 27.3808 24.1976C27.358 24.2128 27.3362 24.2293 27.3154 24.2469C26.203 25.0693 24.7727 25.6994 22.9998 25.6994C21.227 25.6994 19.7966 25.0693 18.6841 24.2468C18.6633 24.2293 18.6416 24.2128 18.6189 24.1977C17.9009 23.6558 17.3177 23.0358 16.8639 22.4588C15.4942 20.7169 14.7551 18.6408 14.7551 17.5718ZM27.7967 29.4014L22.9998 32.9867L18.2029 29.4014C18.6786 28.7968 18.9451 28.0207 18.9451 27.3281V26.1479C20.0731 26.7545 21.4191 27.1639 22.9998 27.1639C24.5805 27.1639 25.9266 26.7545 27.0545 26.1479V27.3281C27.0545 28.0207 27.321 28.7968 27.7967 29.4014ZM16.981 28.5841C16.5899 28.4352 16.1564 28.4107 15.7464 28.522C15.7284 28.5262 15.7108 28.531 15.6937 28.536L13.1642 29.2993C13.592 27.1956 15.3002 25.5212 17.4808 25.1969V27.3281C17.4808 27.7875 17.2757 28.2624 16.981 28.5841ZM18.9682 34.4618C18.9668 34.4584 18.9654 34.455 18.9642 34.4517C18.927 34.3578 18.8904 34.2652 18.8541 34.1737C18.8476 34.1571 18.841 34.1406 18.8345 34.1242C18.7989 34.0347 18.7637 33.9458 18.7289 33.8584C18.7265 33.8522 18.724 33.8462 18.7216 33.8399C18.6131 33.5672 18.5085 33.3056 18.4079 33.0549C18.4006 33.0367 18.3933 33.0183 18.3859 33.0002C18.357 32.9283 18.3286 32.8575 18.3004 32.7876C18.29 32.7619 18.2798 32.7365 18.2695 32.7111C18.2422 32.6434 18.215 32.576 18.1883 32.5101C18.1803 32.4903 18.1725 32.4712 18.1645 32.4516C18.116 32.3318 18.0686 32.2151 18.0223 32.1014C18.0098 32.0706 17.997 32.0393 17.9846 32.0089C17.9664 31.9646 17.9487 31.9214 17.931 31.8779C17.9118 31.8311 17.8927 31.7846 17.8739 31.7389C17.8669 31.7218 17.8596 31.7037 17.8525 31.6867C17.8469 31.673 17.8417 31.6604 17.8361 31.6469C17.7516 31.4414 17.6712 31.2478 17.5949 31.0656C17.5943 31.0642 17.5936 31.0627 17.5931 31.0612C17.5524 30.9643 17.5127 30.8695 17.4745 30.7793C17.4547 30.7325 17.4352 30.6865 17.416 30.6414L21.5415 33.7248L19.8177 34.4571C19.8146 34.4584 19.8115 34.4597 19.8085 34.461L19.0888 34.7668C19.0479 34.6636 19.008 34.5624 18.9682 34.4618ZM20.7152 38.945C20.5706 38.5697 20.4249 38.1923 20.2789 37.8152C20.0506 37.2255 19.8325 36.6647 19.6238 36.1306L19.8971 36.0145L21.0135 37.3122L20.7152 38.945ZM23.014 44.896C22.993 44.8524 22.968 44.8113 22.9391 44.773C22.6082 43.8985 22.1883 42.792 21.7235 41.5745L22.4071 37.8318H23.5925L24.2761 41.5745C23.7891 42.85 23.3517 44.0033 23.014 44.896ZM23.8671 36.3676H22.1325L21.3117 35.4135L22.9998 34.6964L24.6879 35.4135L23.8671 36.3676ZM25.7207 37.8152C25.5747 38.1923 25.429 38.5697 25.2844 38.945L24.9861 37.3121L26.1025 36.0144L26.3758 36.1305C26.1671 36.6646 25.949 37.2255 25.7207 37.8152ZM28.5252 30.7793C28.489 30.8648 28.4513 30.9546 28.4129 31.0462C28.4079 31.0581 28.4028 31.0701 28.3978 31.0821C28.3599 31.173 28.3212 31.2657 28.2811 31.3623C28.2785 31.3687 28.2758 31.3754 28.2731 31.3818C28.2386 31.4651 28.2031 31.5511 28.1671 31.6387C28.1603 31.6551 28.154 31.6702 28.1473 31.6867C28.1393 31.7063 28.1307 31.7271 28.1226 31.747C28.1065 31.786 28.0902 31.8259 28.0738 31.8657C28.0537 31.9148 28.0337 31.9638 28.0131 32.0141C28.0065 32.0301 27.9998 32.0468 27.9932 32.0629C27.9422 32.1878 27.8898 32.3165 27.8363 32.4487C27.8279 32.4694 27.8196 32.4897 27.8112 32.5107C27.7848 32.5761 27.7578 32.6428 27.7308 32.7099C27.7202 32.7361 27.7096 32.7623 27.6989 32.7889C27.671 32.8581 27.6428 32.9282 27.6143 32.9993C27.6062 33.0191 27.5981 33.0395 27.5901 33.0594C27.4908 33.3066 27.3878 33.5646 27.2809 33.8333C27.2773 33.8422 27.2738 33.8509 27.2703 33.8599C27.2357 33.9467 27.2008 34.035 27.1654 34.1239C27.1589 34.1405 27.1522 34.1571 27.1456 34.1738C27.1091 34.2658 27.0723 34.3588 27.035 34.4532C27.0343 34.455 27.0336 34.4567 27.0329 34.4584C26.9927 34.5602 26.9522 34.6625 26.911 34.767L26.1906 34.4609C26.1881 34.4599 26.1855 34.4588 26.1831 34.4577L24.4583 33.725L28.5838 30.6416C28.5644 30.6865 28.5449 30.7324 28.5252 30.7793ZM30.3059 28.5361C30.3058 28.5361 30.3056 28.536 30.3055 28.536C30.3049 28.5358 30.3042 28.5357 30.3036 28.5354C29.8788 28.408 29.4257 28.4291 29.0187 28.5841C28.7239 28.2624 28.5189 27.7875 28.5189 27.3281V25.1958C30.7132 25.5192 32.4162 27.1779 32.8385 29.3002L30.3059 28.5361ZM35.9882 38.9038C35.9882 40.1854 34.9455 41.228 33.664 41.228C32.3824 41.228 31.3397 40.1854 31.3397 38.9038C31.3397 37.6222 32.3824 36.5796 33.664 36.5796C34.9455 36.5796 35.9882 37.6222 35.9882 38.9038Z" fill="#066D66"/>
</svg>
