<svg width="50" height="48" viewBox="0 0 50 48" fill="none" xmlns="http://www.w3.org/2000/svg">
<path d="M49.9395 26.8726C49.57 24.3129 47.5591 22.3019 44.9993 21.9325V20.4175C44.9993 16.2376 41.8219 12.8343 37.9161 12.8343C34.1228 12.8343 30.947 16.1342 30.8329 20.1908H30.8812L30.8329 20.1992V36.6214C30.8329 41.8713 26.9079 46.1346 22.083 46.1346C17.2581 46.1346 13.3331 41.8655 13.3331 36.6214V35.1989C14.5415 35.1989 15.8331 34.3231 15.8331 31.8657V29.7699C21.1814 28.4024 24.9996 23.8099 24.9996 18.6034V16.8659H23.333L23.298 6.0202C23.2859 4.01263 21.8453 2.29849 19.8697 1.9411C19.4436 0.635594 18.0397 -0.0773124 16.7341 0.348931C15.4286 0.775071 14.7157 2.1789 15.142 3.48451C15.5681 4.79001 16.9719 5.50292 18.2775 5.07667C18.9766 4.84845 19.5388 4.32252 19.813 3.64024C20.8806 3.94398 21.6202 4.91522 21.6288 6.0252L21.6663 16.8659H19.9997V18.6275C19.9332 21.5261 17.9899 24.045 15.2031 24.8449C13.712 25.318 12.111 25.318 10.6198 24.8449C7.83624 24.0423 5.89731 21.5238 5.83325 18.6275V16.8659H3.33328V6.0327C3.33808 4.90636 4.09556 3.92221 5.18326 3.6294C5.69044 4.92053 7.14823 5.55594 8.43935 5.04876C9.73048 4.54158 10.3659 3.08368 9.85871 1.79266C9.35153 0.501637 7.89363 -0.133874 6.60261 0.373306C5.90304 0.648198 5.36325 1.22184 5.13159 1.93693C3.13443 2.27817 1.67216 4.00659 1.66664 6.0327V16.8659H0V18.5992C0 23.8116 3.82078 28.4057 9.16653 29.7699V31.8657C9.16653 34.3231 10.4582 35.1989 11.6665 35.1989V36.6214C11.6665 42.788 16.3389 47.8013 22.083 47.8013C27.8271 47.8013 32.4995 42.7822 32.4995 36.6214V20.2392C32.5829 17.0767 35.0145 14.5034 37.9161 14.5034C40.9027 14.5034 43.3327 17.1567 43.3327 20.42V21.9325C40.1441 22.3927 37.9324 25.3506 38.3926 28.5392C38.8528 31.7278 41.8107 33.9396 44.9993 33.4794C48.1879 33.0192 50.3997 30.0611 49.9395 26.8726ZM17.4997 3.53274C17.0395 3.53274 16.6664 3.15962 16.6664 2.69942C16.6664 2.23922 17.0395 1.8661 17.4997 1.8661C17.9599 1.8661 18.3331 2.23922 18.3331 2.69942C18.3331 3.15962 17.9599 3.53274 17.4997 3.53274ZM7.49989 1.8661C7.96009 1.8661 8.33321 2.23922 8.33321 2.69942C8.33321 3.15962 7.96009 3.53274 7.49989 3.53274C7.03969 3.53274 6.66657 3.15962 6.66657 2.69942C6.66657 2.23922 7.03969 1.8661 7.49989 1.8661ZM1.66664 18.5992V18.5325H4.1666V18.6275C4.2291 22.2494 6.63876 25.4103 10.1149 26.4299C11.9364 27.0067 13.8916 27.0067 15.7131 26.4299C19.1909 25.4117 21.6027 22.2507 21.6663 18.6275V18.5325H23.333V18.5992C23.333 23.235 19.7597 27.3141 14.8331 28.3007C13.6763 28.5324 12.4913 28.5905 11.3173 28.4732C10.9309 28.4357 10.5467 28.3776 10.1665 28.299C5.23992 27.3141 1.66664 23.235 1.66664 18.5992ZM11.6665 33.5323C10.9165 33.5323 10.8332 32.3657 10.8332 31.8657V30.0974C10.8998 30.1057 10.9682 30.109 11.0357 30.1157C11.119 30.1248 11.2023 30.1315 11.2857 30.139C11.6798 30.174 12.0773 30.1973 12.4781 30.1982H12.5198C12.9198 30.1982 13.3165 30.174 13.7081 30.139C13.7915 30.1315 13.8798 30.1248 13.9656 30.1157C14.0315 30.1082 14.0998 30.1057 14.1656 30.0974V31.8657C14.1656 32.3657 14.0823 33.5323 13.3323 33.5323H11.6665ZM44.166 31.8657C41.8649 31.8657 39.9994 30.0002 39.9994 27.6991C39.9994 25.3979 41.8649 23.5324 44.166 23.5324C46.4671 23.5324 48.3326 25.3979 48.3326 27.6991C48.3299 29.9991 46.466 31.863 44.166 31.8657Z" fill="#066D66"/>
</svg>
