<svg width="26" height="25" viewBox="0 0 26 25" fill="none" xmlns="http://www.w3.org/2000/svg">
<g clip-path="url(#clip0)">
<path d="M11.3633 10.0398V14.6033L15.5696 12.3414L11.3633 10.0398Z" fill="#066D66"/>
<path d="M19.2009 0H6.7207C3.28816 0 0.470703 2.81746 0.470703 6.26984V18.75C0.470703 22.1825 3.28816 25 6.7207 25H19.2009C22.6532 25 25.4707 22.1825 25.4707 18.7302V6.26984C25.4707 2.81746 22.6532 0 19.2009 0ZM20.7088 13.1151C20.7088 14.4246 20.5898 15.754 20.5898 15.754C20.5898 15.754 20.4509 16.8651 19.9945 17.3611C19.3993 18.0159 18.7445 18.0159 18.4469 18.0556C16.2644 18.2143 12.9905 18.2341 12.9905 18.2341C12.9905 18.2341 8.92308 18.1746 7.67308 18.0556C7.33578 17.996 6.54213 18.0159 5.94689 17.3611C5.4707 16.8651 5.35166 15.754 5.35166 15.754C5.35166 15.754 5.23261 14.4246 5.23261 13.1151V11.8849C5.23261 10.5754 5.35166 9.24603 5.35166 9.24603C5.35166 9.24603 5.49054 8.13492 5.94689 7.63889C6.54213 6.98413 7.19689 6.96429 7.49451 6.9246C9.69689 6.76587 12.9707 6.74603 12.9707 6.74603C12.9707 6.74603 16.2445 6.76587 18.4271 6.9246C18.7247 6.96429 19.3993 6.98413 19.9945 7.61905C20.4707 8.11508 20.5898 9.24603 20.5898 9.24603C20.5898 9.24603 20.7088 10.5754 20.7088 11.8849V13.1151Z" fill="#066D66"/>
</g>
<defs>
<clipPath id="clip0">
<rect width="25" height="25" fill="white" transform="translate(0.470703)"/>
</clipPath>
</defs>
</svg>
