<svg width="164" height="65" viewBox="0 0 164 65" fill="none" xmlns="http://www.w3.org/2000/svg">
<g clip-path="url(#clip0)">
<path fill-rule="evenodd" clip-rule="evenodd" d="M163.349 12.8621H156.366V-0.00147636H163.73V1.855H158.332V5.45944H163.553V7.31592H158.325V11.0056H163.723V12.8621H163.337H163.349ZM131.666 12.8621H130.081V-0.00147636H132.568L132.618 0.126423L132.665 0.231068L136.744 9.72275L140.819 0.231068L140.862 0.126423L140.912 -0.00147636H143.399V12.8621H141.44V3.59133L137.584 12.6296L137.538 12.7342L137.484 12.8582H135.981L135.93 12.7342L135.884 12.6296L132.028 3.59133V12.8621H131.643H131.666ZM116.69 12.8621H115.109V-0.00147636H117.072V12.8621H116.686H116.69ZM95.4528 12.8621H93.872V-0.00147636H97.6159C98.5825 -0.0297145 99.5443 0.147251 100.438 0.517873C101.062 0.78388 101.603 1.21196 102.008 1.75811C102.317 2.19345 102.537 2.68614 102.655 3.20763C102.735 3.57818 102.775 3.9563 102.775 4.33547C102.778 4.85654 102.682 5.37346 102.493 5.85864C102.309 6.329 102.032 6.75733 101.68 7.11826C101.358 7.44036 100.982 7.70278 100.569 7.8934C100.243 8.05266 99.8965 8.16861 99.5399 8.23834L102.54 12.2342L102.748 12.5172L102.991 12.8466H100.554L100.492 12.7652L100.438 12.6954L96.3551 7.23065L96.1469 6.9516L95.8962 6.62216H97.6159C97.8825 6.6229 98.149 6.60866 98.414 6.57953C98.7905 6.53747 99.1591 6.44222 99.5091 6.2966C99.8721 6.1481 100.189 5.90453 100.427 5.59121C100.698 5.18876 100.834 4.70895 100.812 4.22308C100.826 3.87701 100.765 3.53204 100.635 3.21151C100.503 2.922 100.302 2.67018 100.049 2.479C99.7496 2.26035 99.4102 2.10358 99.0502 2.01778C98.5876 1.90204 98.1119 1.84732 97.6352 1.855H95.85V12.8621H95.4644H95.4528ZM77.1149 1.855H74.8747V6.14932H77.1149C77.4864 6.15463 77.8567 6.10501 78.2138 6.00204C78.5051 5.91877 78.7757 5.77484 79.0081 5.57959C79.2204 5.39619 79.3868 5.16518 79.4939 4.90521C79.6116 4.6217 79.6706 4.31709 79.6674 4.00991C79.6679 3.69759 79.6077 3.38819 79.4901 3.09911C79.3816 2.83991 79.2154 2.60919 79.0042 2.42474C78.7786 2.23248 78.5161 2.08871 78.2331 2.00228C77.8697 1.89758 77.4928 1.84795 77.1149 1.855ZM74.5007 12.8621H72.916V-0.00147636H77.0995C77.7321 -0.0110728 78.3625 0.0751607 78.9695 0.254322C79.4925 0.409923 79.9771 0.673984 80.3923 1.02947C80.7922 1.38344 81.1039 1.82683 81.3023 2.32397C81.5159 2.86122 81.6233 3.43521 81.6184 4.01379C81.6233 4.58306 81.5131 5.1474 81.2945 5.6726C81.0884 6.17369 80.7689 6.61957 80.3614 6.97485C79.9433 7.33024 79.4562 7.59422 78.931 7.75C78.3348 7.93096 77.7145 8.01854 77.0918 8.00968H74.867V12.8621H74.4814H74.5007Z" fill="white"/>
<path fill-rule="evenodd" clip-rule="evenodd" d="M86.438 38.7962H84.5718V27.9325H84.5217L80.2148 38.7962H79.0928L74.7666 27.9325H74.7319V38.7962H72.8657V25.9326H75.8038L79.6441 35.7886L83.4999 25.9326H86.438V38.7962Z" fill="white"/>
<path fill-rule="evenodd" clip-rule="evenodd" d="M98.7187 38.7962H91.8169V25.9326H98.7187V27.6534H93.6869V31.4439H98.7187V33.1647H93.6869V37.0753H98.7187V38.7962Z" fill="white"/>
<path fill-rule="evenodd" clip-rule="evenodd" d="M114.469 32.3974C114.461 33.2427 114.32 34.0814 114.049 34.8817C113.817 35.6487 113.41 36.3507 112.861 36.932C111.62 38.1722 109.949 38.7923 107.849 38.7923H103.785V25.9326H107.933C110.296 25.9326 112.037 26.7207 113.158 28.2968C114.02 29.4874 114.48 30.9247 114.469 32.3974ZM112.603 32.3974C112.597 31.7252 112.466 31.0601 112.217 30.4362C111.898 29.5798 111.311 28.8508 110.544 28.3588C109.752 27.8779 108.84 27.6332 107.914 27.6534H105.647V37.0754H107.879C109.345 37.0754 110.501 36.6633 111.35 35.839C112.198 35.0148 112.61 33.8675 112.587 32.3974H112.603Z" fill="white"/>
<path d="M121.456 25.9326H119.589V38.7923H121.456V25.9326Z" fill="white"/>
<path fill-rule="evenodd" clip-rule="evenodd" d="M138.837 29.2191H136.59C135.561 28.0125 134.362 27.4091 132.992 27.4091C132.359 27.3976 131.731 27.5204 131.148 27.7695C130.565 28.0186 130.041 28.3884 129.611 28.8548C129.163 29.3156 128.811 29.8613 128.575 30.4601C128.34 31.059 128.225 31.6991 128.238 32.3429C128.227 33.6408 128.72 34.8918 129.611 35.8311C130.028 36.3079 130.544 36.6884 131.121 36.9466C131.699 37.2048 132.325 37.3346 132.957 37.3271C133.627 37.3276 134.288 37.1696 134.885 36.8659C135.492 36.565 136.03 36.1414 136.466 35.6218H138.78C138.204 36.6663 137.359 37.5363 136.335 38.1411C135.317 38.7438 134.154 39.056 132.973 39.0441C132.107 39.0535 131.248 38.8817 130.451 38.5394C129.655 38.1971 128.938 37.6918 128.346 37.0558C127.725 36.437 127.234 35.6987 126.903 34.885C126.571 34.0713 126.407 33.1988 126.418 32.3197C126.414 31.4492 126.582 30.5866 126.911 29.7816C127.241 28.9766 127.725 28.2452 128.338 27.6297C128.95 27.0141 129.678 26.5267 130.479 26.1955C131.279 25.8643 132.138 25.6958 133.004 25.6999C134.394 25.6883 135.751 26.1228 136.879 26.9402C137.688 27.5486 138.356 28.3261 138.837 29.2191Z" fill="white"/>
<path fill-rule="evenodd" clip-rule="evenodd" d="M153.138 38.7962H151.145L149.73 35.0057H145.134L143.715 38.7962H141.745L146.603 25.9326H148.28L153.138 38.7962ZM149.094 33.2849L147.467 28.3666H147.432L145.789 33.2849H149.094Z" fill="white"/>
<path fill-rule="evenodd" clip-rule="evenodd" d="M164 38.7962H157.688V25.9326H159.555V37.0753H164V38.7962Z" fill="white"/>
<path fill-rule="evenodd" clip-rule="evenodd" d="M84.6914 55.1788H82.4435C81.4153 53.9721 80.2174 53.3701 78.8499 53.3727C78.2171 53.3607 77.5889 53.4829 77.0063 53.7313C76.4236 53.9797 75.8996 54.3488 75.4684 54.8145C75.0201 55.2747 74.6677 55.8204 74.432 56.4194C74.1963 57.0184 74.082 57.6586 74.0958 58.3026C74.0832 59.6008 74.5758 60.8526 75.4684 61.7908C75.8863 62.2676 76.4016 62.6481 76.9793 62.9063C77.5569 63.1645 78.1831 63.2943 78.8152 63.2869C79.485 63.2874 80.1454 63.1294 80.7431 62.8256C81.3516 62.5261 81.8913 62.1024 82.3278 61.5815H84.6412C84.0639 62.6263 83.2184 63.4962 82.1928 64.1008C81.1752 64.7052 80.0126 65.0188 78.8306 65.0077C77.9642 65.0157 77.1056 64.8428 76.3091 64.4998C75.5127 64.1569 74.7958 63.6515 74.2037 63.0156C73.5832 62.3962 73.0927 61.6578 72.7616 60.8442C72.4304 60.0306 72.2652 59.1584 72.2759 58.2794C72.2718 57.4086 72.4395 56.5456 72.7692 55.7404C73.099 54.9351 73.5842 54.2035 74.197 53.588C74.8098 52.9724 75.5378 52.485 76.3391 52.154C77.1404 51.823 77.999 51.655 78.8653 51.6596C80.2668 51.6433 81.6363 52.0809 82.7712 52.9076C83.5675 53.5158 84.2227 54.2908 84.6914 55.1788Z" fill="white"/>
<path fill-rule="evenodd" clip-rule="evenodd" d="M99.9407 64.7557H93.6289V51.8921H95.4951V63.0348H99.9407V64.7557Z" fill="white"/>
<path d="M110.274 51.8921H108.408V64.7518H110.274V51.8921Z" fill="white"/>
<path fill-rule="evenodd" clip-rule="evenodd" d="M130.189 64.7557H128.253L121.926 54.8144H121.892V64.7557H120.021V51.8921H122.061L128.288 61.6783H128.323V51.8921H130.189V64.7557Z" fill="white"/>
<path d="M141.822 51.8921H139.956V64.7518H141.822V51.8921Z" fill="white"/>
<path fill-rule="evenodd" clip-rule="evenodd" d="M163.399 55.1788H161.17C160.142 53.9722 158.943 53.3702 157.573 53.3727C156.94 53.3607 156.312 53.4829 155.729 53.7313C155.146 53.9798 154.622 54.3488 154.191 54.8145C153.743 55.2753 153.392 55.821 153.156 56.4199C152.92 57.0188 152.806 57.6588 152.818 58.3027C152.808 59.6005 153.3 60.8515 154.191 61.7909C154.609 62.2677 155.124 62.6482 155.702 62.9063C156.28 63.1645 156.906 63.2943 157.538 63.2869C158.208 63.2875 158.868 63.1295 159.466 62.8257C160.074 62.5261 160.614 62.1024 161.05 61.5816H163.364C162.787 62.6252 161.943 63.495 160.919 64.1008C159.9 64.7047 158.736 65.0182 157.553 65.0077C156.687 65.0157 155.828 64.8428 155.032 64.4999C154.235 64.157 153.518 63.6515 152.926 63.0156C152.306 62.3962 151.815 61.6578 151.484 60.8442C151.153 60.0306 150.988 59.1584 150.999 58.2794C150.994 57.4086 151.162 56.5457 151.492 55.7404C151.822 54.9351 152.307 54.2036 152.92 53.588C153.532 52.9724 154.26 52.4851 155.062 52.1541C155.863 51.8231 156.722 51.655 157.588 51.6596C158.99 51.6428 160.359 52.0804 161.494 52.9076C162.284 53.5185 162.933 54.2931 163.399 55.1788Z" fill="white"/>
<path fill-rule="evenodd" clip-rule="evenodd" d="M0 45.346V48.3962H4.53435H7.54954H9.47741C10.4262 48.377 11.3721 48.5078 12.2805 48.7837C13.0428 49.0232 13.7386 49.4386 14.3125 49.9968C14.8793 50.5695 15.3023 51.2697 15.5463 52.0394C15.8224 52.9455 15.9526 53.8902 15.9319 54.8376C15.9529 55.7915 15.8227 56.7426 15.5463 57.6553C15.3143 58.4322 14.8952 59.1397 14.3262 59.715C13.7573 60.2903 13.0559 60.7157 12.2844 60.9536C11.3804 61.2257 10.4402 61.3564 9.49669 61.3411L0.628485 61.4225H0V64.4456H63.5927V41.9663H60.5852V45.346L54.1153 45.377C52.7036 45.3512 51.2971 45.5567 49.9511 45.9855C48.8442 46.3418 47.8363 46.9552 47.0092 47.776C45.1468 49.6596 44.6417 52.392 44.6417 54.95C44.6349 56.0855 44.7644 57.2176 45.0273 58.3219C45.2198 59.137 45.5276 59.9201 45.9411 60.6474L46.4115 61.4574H39.4905L39.9647 60.6435C40.9672 58.9265 41.268 56.8298 41.268 54.8648C41.2934 53.4457 41.0889 52.032 40.6626 50.679C40.3176 49.5655 39.7052 48.5545 38.8794 47.7353C38.0537 46.916 37.0399 46.3137 35.9278 45.9816C34.575 45.5606 33.1641 45.3591 31.7482 45.3847H22.3209V48.431H26.7858H29.6583H31.7867C32.7369 48.4102 33.6843 48.5411 34.5937 48.8186C35.3649 49.0474 36.0677 49.465 36.639 50.0338C37.2103 50.6027 37.6323 51.3051 37.8672 52.0781C38.1435 52.9829 38.2737 53.9263 38.2528 54.8725C38.2718 55.825 38.1417 56.7745 37.8672 57.6863C37.6182 58.4546 37.1944 59.1539 36.6295 59.7288C36.0559 60.2957 35.357 60.718 34.5898 60.9613C33.6909 61.2382 32.7537 61.369 31.8137 61.3489H31.7327L23.6357 61.4225H17.1658L17.64 60.6086C17.9317 60.1083 18.1695 59.5782 18.3495 59.0273C18.7727 57.667 18.9758 56.2472 18.951 54.8221C18.9763 53.4044 18.7719 51.9919 18.3456 50.6402C17.9914 49.54 17.3867 48.5381 16.5797 47.714C15.7432 46.9066 14.7324 46.3044 13.6262 45.9544C12.2686 45.5303 10.8527 45.3249 9.43114 45.346H0ZM60.5852 48.3458V61.3605H58.426H54.1269C53.1781 61.3792 52.2323 61.2484 51.3237 60.9729C50.5547 60.7323 49.8522 60.3142 49.2725 59.7521C48.708 59.179 48.2876 58.4787 48.0464 57.7096C47.7701 56.8048 47.6399 55.8614 47.6608 54.9152C47.6417 53.9627 47.7718 53.0132 48.0464 52.1014C48.2769 51.3236 48.6954 50.6154 49.2646 50.0398C49.8338 49.4643 50.536 49.0394 51.3083 48.8031C52.2085 48.526 53.147 48.3951 54.0883 48.4155H54.2001L60.5852 48.3458Z" fill="#1B1B1B"/>
<path fill-rule="evenodd" clip-rule="evenodd" d="M22.3209 3.62415H24.5495H27.4837H31.7867C32.7368 3.60523 33.6839 3.736 34.5937 4.01172C35.3564 4.25066 36.0534 4.66465 36.6295 5.22095C37.1907 5.79446 37.6095 6.4929 37.8518 7.25959C38.1281 8.16569 38.2582 9.11041 38.2374 10.0579C38.2561 11.0116 38.126 11.9623 37.8518 12.8755C37.6096 13.6491 37.1911 14.3551 36.6295 14.9374C36.0559 15.5043 35.357 15.9266 34.5898 16.1699C33.7155 16.4385 32.805 16.5693 31.8908 16.5575L22.3209 16.666V19.6736L31.7983 19.631C33.2097 19.6523 34.6155 19.4469 35.9625 19.0225C37.0703 18.6662 38.0785 18.0513 38.9044 17.228C39.7137 16.3906 40.3183 15.3756 40.6703 14.2631C41.087 12.9003 41.2849 11.4794 41.2564 10.054C41.2711 8.92843 41.1493 7.80525 40.894 6.70924C40.7067 5.90466 40.4068 5.13085 40.0033 4.41093L39.5406 3.60477H46.4231L45.9488 4.4148C45.5266 5.15062 45.2136 5.94448 45.0196 6.77125C44.7527 7.89325 44.6232 9.04383 44.634 10.1974C44.6089 11.6139 44.8134 13.025 45.2394 14.3754C45.595 15.4842 46.2052 16.4933 47.0207 17.321C47.8581 18.1293 48.8703 18.7316 49.9781 19.0806C51.3302 19.4982 52.7395 19.6983 54.1539 19.6736H60.5775V22.9059H63.585V0.539062C53.0203 0.539062 42.4543 0.545522 31.887 0.558441C21.2605 0.57136 10.6316 0.57782 0 0.57782V3.62803H5.15898H9.46198C10.4108 3.60912 11.3566 3.7399 12.2651 4.0156C13.0328 4.25489 13.734 4.6717 14.3125 5.23258C14.8793 5.80524 15.3023 6.50541 15.5463 7.2751C15.8224 8.18257 15.9526 9.12853 15.9319 10.0773C15.9526 11.0298 15.8224 11.9796 15.5463 12.891C15.3041 13.6646 14.8856 14.3706 14.3241 14.9529C13.7504 15.5198 13.0515 15.9421 12.2844 16.1854C11.3854 16.4623 10.4483 16.5931 9.50825 16.573H9.39258L0 16.666V19.6736L9.47355 19.631C10.8849 19.6561 12.2911 19.4519 13.6377 19.0263C14.7437 18.6679 15.7511 18.0548 16.5797 17.2357C17.3909 16.3961 17.9967 15.3784 18.3495 14.2631C18.7706 12.9089 18.9737 11.4958 18.951 10.0773C18.9637 8.95177 18.842 7.82882 18.5885 6.73249C18.3985 5.92636 18.0961 5.15129 17.6901 4.4303L17.2274 3.60477H22.3209V3.62415ZM60.5852 16.6311H58.426H54.1269C53.1793 16.6501 52.2347 16.5193 51.3276 16.2436C50.556 16.015 49.8526 15.5981 49.2801 15.0301C48.7076 14.462 48.2838 13.7605 48.0464 12.9879C47.7703 12.0805 47.6401 11.1345 47.6608 10.1858C47.6417 9.23332 47.7718 8.28378 48.0464 7.37199C48.2784 6.59504 48.6975 5.88759 49.2665 5.31229C49.8354 4.73698 50.5368 4.31158 51.3083 4.07374C52.1522 3.81071 53.0313 3.67998 53.9148 3.68616H54.1847L60.5891 3.6319L60.5852 16.6311Z" fill="#1B1B1B"/>
<path fill-rule="evenodd" clip-rule="evenodd" d="M9.47355 41.9743C10.8849 41.994 12.2904 41.7886 13.6377 41.3658C14.7439 41.0076 15.7513 40.3944 16.5797 39.5752C17.3916 38.7376 17.9976 37.721 18.3495 36.6064C18.7727 35.2461 18.9758 33.8263 18.951 32.4012C18.9763 30.9847 18.7719 29.5735 18.3456 28.2232C17.9945 27.1159 17.3896 26.1069 16.5797 25.2776C15.7432 24.4702 14.7324 23.868 13.6262 23.518C12.2864 23.1042 10.8904 22.9041 9.48897 22.925V25.9675C10.434 25.9486 11.376 26.0794 12.2805 26.355C13.0521 26.5836 13.7555 27.0005 14.328 27.5685C14.9005 28.1366 15.3243 28.8381 15.5618 29.6107C15.8378 30.5181 15.968 31.4641 15.9473 32.4128C15.968 33.3654 15.8378 34.3152 15.5618 35.2266C15.3213 36.0009 14.9025 36.7074 14.3395 37.2885C13.7671 37.8578 13.0678 38.2817 12.2998 38.5249C11.3958 38.7969 10.4556 38.9277 9.51211 38.9124H9.48897V41.9626L9.47355 41.9743ZM63.5927 41.9743V38.9279H61.3641H56.2514H54.1307C53.1833 38.9452 52.2389 38.8145 51.3315 38.5404C50.5629 38.3004 49.8606 37.8838 49.2802 37.3234C48.7139 36.7525 48.292 36.0534 48.0502 35.2847C47.7742 34.3759 47.644 33.4287 47.6646 32.4787V32.2617C47.6635 31.3816 47.7934 30.5063 48.0502 29.6649C48.2822 28.8886 48.7008 28.1816 49.269 27.6063C49.8373 27.0311 50.5376 26.6054 51.3083 26.3667C52.151 26.1042 53.0288 25.9735 53.9109 25.9791H54.1693L63.5966 25.8938V22.8901L54.123 22.9328C52.7106 22.912 51.3039 23.1161 49.955 23.5374C48.8439 23.8847 47.8339 24.4995 47.0128 25.3282C46.1917 26.157 45.5843 27.1746 45.2432 28.2929C44.8206 29.6533 44.6175 31.0731 44.6417 32.4981C44.6164 33.9158 44.8208 35.3283 45.2471 36.68C45.6023 37.7887 46.2142 38.7969 47.0323 39.6217C47.866 40.4289 48.8742 41.0311 49.9781 41.3813C51.331 41.8015 52.7418 42.003 54.1577 41.9781H63.5927V41.9743ZM0 54.8805H3.00748V42.0014L9.47355 41.9743V38.9241L3.00748 38.9822V25.9675H7.34518H9.47355V22.925H0V54.8805Z" fill="white"/>
<path fill-rule="evenodd" clip-rule="evenodd" d="M45.7793 41.9781H42.3091V31.6454C42.3091 27.935 40.8517 26.0798 37.9367 26.0798C36.2685 26.0798 35.1118 26.5656 34.4666 27.5371C33.8214 28.5086 33.5142 29.8677 33.545 31.6143V41.9781H30.0749V31.6454C30.0749 29.9245 29.8178 28.6507 29.3037 27.8239C28.548 26.6612 27.4028 26.0798 25.8683 26.0798C22.8171 26.0798 21.2928 27.9246 21.2954 31.6143V41.9781H17.8252V23.3939H21.0293V25.4054H21.0949C21.7348 24.6067 22.5298 23.9474 23.4314 23.4675C24.3661 23.0563 25.3807 22.8616 26.4004 22.8978C27.5836 22.8994 28.7499 23.1809 29.805 23.7195C30.822 24.1949 31.6466 25.006 32.1416 26.0178C33.4525 23.9507 35.4883 22.9172 38.249 22.9172C40.673 22.9172 42.5366 23.6213 43.8399 25.0295C45.1431 26.4377 45.7934 28.3613 45.7909 30.8004L45.7793 41.9781Z" fill="white"/>
</g>
<defs>
<clipPath id="clip0">
<rect width="164" height="65" fill="white"/>
</clipPath>
</defs>
</svg>
