<svg width="25" height="25" viewBox="0 0 25 25" fill="none" xmlns="http://www.w3.org/2000/svg">
<path d="M12.484 8.46858C10.2643 8.46858 8.45276 10.282 8.45276 12.504C8.45276 14.7261 10.2643 16.5395 12.484 16.5395C14.7038 16.5395 16.5153 14.7261 16.5153 12.504C16.5153 10.282 14.7038 8.46858 12.484 8.46858ZM24.5747 12.504C24.5747 10.8329 24.5899 9.17698 24.4961 7.50891C24.4024 5.57141 23.9608 3.85188 22.5455 2.43508C21.1272 1.01526 19.4124 0.576291 17.477 0.482443C15.8076 0.388596 14.1534 0.403732 12.487 0.403732C10.8177 0.403732 9.16345 0.388596 7.49712 0.482443C5.56164 0.576291 3.84389 1.01828 2.42857 2.43508C1.01022 3.8549 0.571716 5.57141 0.477966 7.50891C0.384216 9.18 0.399337 10.836 0.399337 12.504C0.399337 14.1721 0.384216 15.8311 0.477966 17.4991C0.571716 19.4366 1.01325 21.1562 2.42857 22.573C3.84692 23.9928 5.56164 24.4318 7.49712 24.5256C9.16647 24.6195 10.8207 24.6043 12.487 24.6043C14.1564 24.6043 15.8106 24.6195 17.477 24.5256C19.4124 24.4318 21.1302 23.9898 22.5455 22.573C23.9639 21.1531 24.4024 19.4366 24.4961 17.4991C24.5929 15.8311 24.5747 14.1751 24.5747 12.504ZM12.484 18.7131C9.05155 18.7131 6.28139 15.9401 6.28139 12.504C6.28139 9.06799 9.05155 6.29494 12.484 6.29494C15.9165 6.29494 18.6866 9.06799 18.6866 12.504C18.6866 15.9401 15.9165 18.7131 12.484 18.7131ZM18.9407 7.49074C18.1393 7.49074 17.4921 6.84289 17.4921 6.04065C17.4921 5.2384 18.1393 4.59055 18.9407 4.59055C19.7421 4.59055 20.3893 5.2384 20.3893 6.04065C20.3895 6.23114 20.3522 6.41982 20.2795 6.59586C20.2068 6.7719 20.1001 6.93185 19.9655 7.06655C19.8309 7.20126 19.6712 7.30806 19.4953 7.38085C19.3194 7.45364 19.131 7.49098 18.9407 7.49074Z" fill="white"/>
</svg>
