<svg width="25" height="25" viewBox="0 0 25 25" fill="none" xmlns="http://www.w3.org/2000/svg">
<path d="M12.5 8.46446C10.278 8.46446 8.46457 10.2778 8.46457 12.4999C8.46457 14.722 10.278 16.5354 12.5 16.5354C14.7221 16.5354 16.5355 14.722 16.5355 12.4999C16.5355 10.2778 14.7221 8.46446 12.5 8.46446ZM24.6033 12.4999C24.6033 10.8288 24.6185 9.17285 24.5246 7.50479C24.4308 5.56729 23.9888 3.84776 22.572 2.43096C21.1522 1.01114 19.4357 0.572171 17.4982 0.478324C15.8271 0.384476 14.1711 0.399613 12.503 0.399613C10.832 0.399613 9.176 0.384476 7.50793 0.478324C5.57043 0.572171 3.8509 1.01416 2.4341 2.43096C1.01428 3.85078 0.575314 5.56729 0.481467 7.50479C0.387619 9.17588 0.402756 10.8318 0.402756 12.4999C0.402756 14.168 0.387619 15.827 0.481467 17.495C0.575314 19.4325 1.01731 21.1521 2.4341 22.5688C3.85393 23.9887 5.57043 24.4276 7.50793 24.5215C9.17903 24.6153 10.835 24.6002 12.503 24.6002C14.1741 24.6002 15.8301 24.6153 17.4982 24.5215C19.4357 24.4276 21.1552 23.9856 22.572 22.5688C23.9918 21.149 24.4308 19.4325 24.5246 17.495C24.6215 15.827 24.6033 14.171 24.6033 12.4999ZM12.5 18.709C9.06399 18.709 6.29094 15.9359 6.29094 12.4999C6.29094 9.06387 9.06399 6.29082 12.5 6.29082C15.9361 6.29082 18.7091 9.06387 18.7091 12.4999C18.7091 15.9359 15.9361 18.709 12.5 18.709ZM18.9634 7.48662C18.1612 7.48662 17.5133 6.83877 17.5133 6.03653C17.5133 5.23428 18.1612 4.58643 18.9634 4.58643C19.7656 4.58643 20.4135 5.23428 20.4135 6.03653C20.4137 6.22702 20.3764 6.4157 20.3036 6.59174C20.2308 6.76778 20.124 6.92773 19.9893 7.06243C19.8546 7.19714 19.6947 7.30394 19.5186 7.37673C19.3426 7.44952 19.1539 7.48686 18.9634 7.48662Z" fill="#066D66"/>
</svg>
